P3
3 18 
255 
255 255 255 255 255 255 255 255 255 
255 255 255 139 139 139 251 251 251 
255 255 255 139 139 139 251 251 251 
255 255 255 139 139 139 251 251 251 
255 255 255 139 139 139 251 251 251 
255 255 255 139 139 139 251 251 251 
255 255 255 139 139 139 251 251 251 
255 255 255 139 139 139 251 251 251 
255 255 255 139 139 139 251 251 251 
255 255 255 139 139 139 251 251 251 
255 255 255 212 212 212 254 254 254 
255 255 255 255 255 255 255 255 255 
255 255 255 255 255 255 255 255 255 
255 255 255 134 134 134 202 202 202 
255 255 255 255 255 255 255 255 255 
255 255 255 255 255 255 255 255 255 
255 255 255 255 255 255 255 255 255 
255 255 255 255 255 255 255 255 255 
