P3
10 18 
255 
255 255 255 255 255 255 255 255 255 255 255 255 255 255 255 255 255 255 255 255 255 255 255 255 255 255 255 255 255 255 
255 255 255 255 255 255 255 255 255 255 255 255 139 139 139 244 244 244 255 255 255 255 255 255 131 131 131 255 255 255 
255 255 255 255 255 255 255 255 255 255 255 255 129 129 129 255 255 255 255 255 255 249 249 249 137 137 137 255 255 255 
255 255 255 255 255 255 255 255 255 255 255 255 131 131 131 255 255 255 255 255 255 200 200 200 184 184 184 255 255 255 
255 255 255 162 162 162 131 131 131 112 112 112 87 87 87 131 131 131 131 131 131 71 71 71 126 126 126 131 131 131 
255 255 255 255 255 255 255 255 255 190 190 190 197 197 197 255 255 255 255 255 255 127 127 127 255 255 255 255 255 255 
255 255 255 255 255 255 255 255 255 153 153 153 234 234 234 255 255 255 255 255 255 127 127 127 255 255 255 255 255 255 
255 255 255 255 255 255 255 255 255 131 131 131 255 255 255 255 255 255 255 255 255 127 127 127 255 255 255 255 255 255 
255 255 255 255 255 255 255 255 255 131 131 131 255 255 255 255 255 255 250 250 250 134 134 134 255 255 255 255 255 255 
255 255 255 255 255 255 255 255 255 131 131 131 255 255 255 255 255 255 215 215 215 167 167 167 255 255 255 255 255 255 
207 207 207 135 135 135 132 132 132 73 73 73 135 135 135 135 135 135 93 93 93 110 110 110 135 135 135 167 167 167 
255 255 255 255 255 255 208 208 208 175 175 175 255 255 255 255 255 255 134 134 134 249 249 249 255 255 255 255 255 255 
255 255 255 255 255 255 158 158 158 227 227 227 255 255 255 255 255 255 127 127 127 255 255 255 255 255 255 255 255 255 
255 255 255 255 255 255 131 131 131 255 255 255 255 255 255 255 255 255 127 127 127 255 255 255 255 255 255 255 255 255 
255 255 255 255 255 255 255 255 255 255 255 255 255 255 255 255 255 255 255 255 255 255 255 255 255 255 255 255 255 255 
255 255 255 255 255 255 255 255 255 255 255 255 255 255 255 255 255 255 255 255 255 255 255 255 255 255 255 255 255 255 
255 255 255 255 255 255 255 255 255 255 255 255 255 255 255 255 255 255 255 255 255 255 255 255 255 255 255 255 255 255 
255 255 255 255 255 255 255 255 255 255 255 255 255 255 255 255 255 255 255 255 255 255 255 255 255 255 255 255 255 255 
