P3
9 18 
255 
255 255 255 255 255 255 255 255 255 255 255 255 223 223 223 163 163 163 255 255 255 255 255 255 255 255 255 
255 255 255 255 255 255 210 210 210 120 120 120 136 136 136 134 134 134 114 114 114 191 191 191 255 255 255 
255 255 255 232 232 232 121 121 121 253 253 253 255 255 255 255 255 255 255 255 255 121 121 121 218 218 218 
255 255 255 153 153 153 233 233 233 255 255 255 255 255 255 255 255 255 255 255 255 247 247 247 128 128 128 
207 207 207 137 137 137 254 254 254 255 255 255 255 255 255 255 255 255 255 255 255 255 255 255 165 165 165 
255 255 255 197 197 197 186 186 186 255 255 255 255 255 255 255 255 255 255 255 255 255 255 255 255 255 255 
255 255 255 255 255 255 154 154 154 159 159 159 249 249 249 255 255 255 255 255 255 255 255 255 255 255 255 
255 255 255 255 255 255 255 255 255 224 224 224 143 143 143 138 138 138 207 207 207 255 255 255 255 255 255 
255 255 255 255 255 255 255 255 255 255 255 255 255 255 255 253 253 253 175 175 175 133 133 133 251 251 251 
255 255 255 255 255 255 255 255 255 255 255 255 255 255 255 255 255 255 255 255 255 229 229 229 152 152 152 
255 255 255 165 165 165 255 255 255 255 255 255 255 255 255 255 255 255 255 255 255 255 255 255 141 141 141 
255 255 255 117 117 117 255 255 255 255 255 255 255 255 255 255 255 255 255 255 255 255 255 255 128 128 128 
255 255 255 176 176 176 152 152 152 255 255 255 255 255 255 255 255 255 255 255 255 158 158 158 174 174 174 
255 255 255 255 255 255 187 187 187 122 122 122 137 137 137 135 135 135 114 114 114 160 160 160 255 255 255 
255 255 255 255 255 255 255 255 255 255 255 255 247 247 247 139 139 139 255 255 255 255 255 255 255 255 255 
255 255 255 255 255 255 255 255 255 255 255 255 251 251 251 197 197 197 255 255 255 255 255 255 255 255 255 
255 255 255 255 255 255 255 255 255 255 255 255 255 255 255 255 255 255 255 255 255 255 255 255 255 255 255 
255 255 255 255 255 255 255 255 255 255 255 255 255 255 255 255 255 255 255 255 255 255 255 255 255 255 255 
