P3
14 18 
255 
255 255 255 255 255 255 255 255 255 255 255 255 255 255 255 255 255 255 255 255 255 255 255 255 255 255 255 255 255 255 255 255 255 255 255 255 255 255 255 255 255 255 
255 255 255 255 255 255 170 170 170 124 124 124 126 126 126 156 156 156 255 255 255 255 255 255 255 255 255 255 255 255 255 255 255 255 255 255 255 255 255 255 255 255 
255 255 255 225 225 225 149 149 149 255 255 255 255 255 255 170 170 170 208 208 208 255 255 255 255 255 255 254 254 254 205 205 205 255 255 255 255 255 255 255 255 255 
255 255 255 174 174 174 212 212 212 255 255 255 255 255 255 237 237 237 151 151 151 255 255 255 255 255 255 159 159 159 207 207 207 255 255 255 255 255 255 255 255 255 
255 255 255 182 182 182 207 207 207 255 255 255 255 255 255 229 229 229 157 157 157 255 255 255 237 237 237 130 130 130 255 255 255 255 255 255 255 255 255 255 255 255 
255 255 255 240 240 240 126 126 126 254 254 254 255 255 255 136 136 136 226 226 226 255 255 255 126 126 126 240 240 240 255 255 255 255 255 255 255 255 255 255 255 255 
255 255 255 255 255 255 214 214 214 133 133 133 133 133 133 199 199 199 255 255 255 201 201 201 166 166 166 255 255 255 255 255 255 255 255 255 255 255 255 255 255 255 
255 255 255 255 255 255 255 255 255 255 255 255 255 255 255 255 255 255 253 253 253 115 115 115 255 255 255 255 255 255 255 255 255 255 255 255 255 255 255 255 255 255 
255 255 255 255 255 255 255 255 255 255 255 255 255 255 255 255 255 255 155 155 155 213 213 213 255 255 255 169 169 169 136 136 136 140 140 140 240 240 240 255 255 255 
255 255 255 255 255 255 255 255 255 255 255 255 255 255 255 234 234 234 134 134 134 255 255 255 172 172 172 195 195 195 255 255 255 244 244 244 128 128 128 255 255 255 
255 255 255 255 255 255 255 255 255 255 255 255 255 255 255 124 124 124 243 243 243 255 255 255 133 133 133 255 255 255 255 255 255 255 255 255 142 142 142 248 248 248 
255 255 255 255 255 255 255 255 255 255 255 255 196 196 196 172 172 172 255 255 255 255 255 255 132 132 132 255 255 255 255 255 255 255 255 255 145 145 145 242 242 242 
255 255 255 255 255 255 255 255 255 255 255 255 120 120 120 255 255 255 255 255 255 255 255 255 148 148 148 229 229 229 255 255 255 255 255 255 120 120 120 255 255 255 
255 255 255 255 255 255 255 255 255 255 255 255 252 252 252 255 255 255 255 255 255 255 255 255 248 248 248 127 127 127 128 128 128 119 119 119 207 207 207 255 255 255 
255 255 255 255 255 255 255 255 255 255 255 255 255 255 255 255 255 255 255 255 255 255 255 255 255 255 255 255 255 255 255 255 255 255 255 255 255 255 255 255 255 255 
255 255 255 255 255 255 255 255 255 255 255 255 255 255 255 255 255 255 255 255 255 255 255 255 255 255 255 255 255 255 255 255 255 255 255 255 255 255 255 255 255 255 
255 255 255 255 255 255 255 255 255 255 255 255 255 255 255 255 255 255 255 255 255 255 255 255 255 255 255 255 255 255 255 255 255 255 255 255 255 255 255 255 255 255 
179 179 179 255 255 255 255 255 255 255 255 255 255 255 255 255 255 255 255 255 255 255 255 255 255 255 255 255 255 255 255 255 255 255 255 255 255 255 255 255 255 255 
