P3
11 18 
255 
255 255 255 255 255 255 255 255 255 255 255 255 255 255 255 255 255 255 255 255 255 255 255 255 255 255 255 255 255 255 255 255 255 
255 255 255 255 255 255 255 255 255 204 204 204 117 117 117 127 127 127 113 113 113 218 218 218 255 255 255 255 255 255 255 255 255 
255 255 255 255 255 255 252 252 252 117 117 117 255 255 255 255 255 255 252 252 252 118 118 118 255 255 255 255 255 255 255 255 255 
255 255 255 255 255 255 219 219 219 168 168 168 255 255 255 255 255 255 255 255 255 132 132 132 255 255 255 255 255 255 255 255 255 
255 255 255 255 255 255 236 236 236 146 146 146 255 255 255 255 255 255 227 227 227 152 152 152 255 255 255 255 255 255 255 255 255 
255 255 255 255 255 255 255 255 255 123 123 123 251 251 251 213 213 213 135 135 135 253 253 253 255 255 255 255 255 255 255 255 255 
255 255 255 255 255 255 255 255 255 229 229 229 94 94 94 157 157 157 255 255 255 255 255 255 255 255 255 255 255 255 255 255 255 
255 255 255 255 255 255 255 255 255 150 150 150 148 148 148 158 158 158 255 255 255 255 255 255 255 255 255 255 255 255 255 255 255 
255 255 255 255 255 255 147 147 147 211 211 211 255 255 255 180 180 180 175 175 175 255 255 255 255 255 255 255 255 255 172 172 172 
255 255 255 220 220 220 157 157 157 255 255 255 255 255 255 255 255 255 162 162 162 194 194 194 255 255 255 240 240 240 145 145 145 
255 255 255 155 155 155 234 234 234 255 255 255 255 255 255 255 255 255 255 255 255 145 145 145 211 211 211 164 164 164 214 214 214 
255 255 255 168 168 168 208 208 208 255 255 255 255 255 255 255 255 255 255 255 255 255 255 255 129 129 129 119 119 119 255 255 255 
255 255 255 243 243 243 98 98 98 244 244 244 255 255 255 255 255 255 255 255 255 226 226 226 120 120 120 118 118 118 245 245 245 
255 255 255 255 255 255 228 228 228 121 121 121 127 127 127 127 127 127 126 126 126 152 152 152 250 250 250 238 238 238 123 123 123 
255 255 255 255 255 255 255 255 255 255 255 255 255 255 255 255 255 255 255 255 255 255 255 255 255 255 255 255 255 255 255 255 255 
255 255 255 255 255 255 255 255 255 255 255 255 255 255 255 255 255 255 255 255 255 255 255 255 255 255 255 255 255 255 255 255 255 
255 255 255 255 255 255 255 255 255 255 255 255 255 255 255 255 255 255 255 255 255 255 255 255 255 255 255 255 255 255 255 255 255 
255 255 255 255 255 255 255 255 255 255 255 255 255 255 255 255 255 255 255 255 255 255 255 255 255 255 255 255 255 255 255 255 255 
