P3
5 18 
255 
255 255 255 255 255 255 255 255 255 227 227 227 145 145 145 
255 255 255 255 255 255 255 255 255 129 129 129 252 252 252 
255 255 255 255 255 255 205 205 205 179 179 179 255 255 255 
255 255 255 255 255 255 131 131 131 254 254 254 255 255 255 
255 255 255 254 254 254 133 133 133 255 255 255 255 255 255 
255 255 255 219 219 219 169 169 169 255 255 255 255 255 255 
255 255 255 173 173 173 215 215 215 255 255 255 255 255 255 
255 255 255 149 149 149 239 239 239 255 255 255 255 255 255 
255 255 255 136 136 136 254 254 254 255 255 255 255 255 255 
255 255 255 142 142 142 246 246 246 255 255 255 255 255 255 
255 255 255 157 157 157 229 229 229 255 255 255 255 255 255 
255 255 255 191 191 191 191 191 191 255 255 255 255 255 255 
255 255 255 237 237 237 143 143 143 255 255 255 255 255 255 
255 255 255 255 255 255 121 121 121 255 255 255 255 255 255 
255 255 255 255 255 255 140 140 140 233 233 233 255 255 255 
255 255 255 255 255 255 237 237 237 137 137 137 255 255 255 
255 255 255 255 255 255 255 255 255 147 147 147 220 220 220 
255 255 255 255 255 255 255 255 255 253 253 253 126 126 126 
