P3
6 18 
255 
255 255 255 188 188 188 184 184 184 255 255 255 255 255 255 255 255 255 
255 255 255 255 255 255 136 136 136 244 244 244 255 255 255 255 255 255 
255 255 255 255 255 255 232 232 232 151 151 151 255 255 255 255 255 255 
255 255 255 255 255 255 255 255 255 131 131 131 255 255 255 255 255 255 
255 255 255 255 255 255 255 255 255 167 167 167 218 218 218 255 255 255 
255 255 255 255 255 255 255 255 255 228 228 228 161 161 161 255 255 255 
255 255 255 255 255 255 255 255 255 255 255 255 136 136 136 255 255 255 
255 255 255 255 255 255 255 255 255 255 255 255 137 137 137 255 255 255 
255 255 255 255 255 255 255 255 255 255 255 255 137 137 137 255 255 255 
255 255 255 255 255 255 255 255 255 255 255 255 133 133 133 255 255 255 
255 255 255 255 255 255 255 255 255 255 255 255 132 132 132 255 255 255 
255 255 255 255 255 255 255 255 255 248 248 248 135 135 135 255 255 255 
255 255 255 255 255 255 255 255 255 202 202 202 178 178 178 255 255 255 
255 255 255 255 255 255 255 255 255 136 136 136 241 241 241 255 255 255 
255 255 255 255 255 255 255 255 255 119 119 119 255 255 255 255 255 255 
255 255 255 255 255 255 184 184 184 189 189 189 255 255 255 255 255 255 
255 255 255 249 249 249 118 118 118 255 255 255 255 255 255 255 255 255 
253 253 253 126 126 126 234 234 234 255 255 255 255 255 255 255 255 255 
