P3
8 18 
255 
255 255 255 255 255 255 255 255 255 255 255 255 255 255 255 255 255 255 255 255 255 255 255 255 
255 255 255 255 255 255 255 255 255 255 255 255 130 130 130 255 255 255 255 255 255 255 255 255 
255 255 255 255 255 255 255 255 255 255 255 255 134 134 134 255 255 255 255 255 255 255 255 255 
240 240 240 146 146 146 234 234 234 255 255 255 139 139 139 255 255 255 199 199 199 152 152 152 
255 255 255 230 230 230 148 148 148 133 133 133 76 76 76 130 130 130 178 178 178 252 252 252 
255 255 255 255 255 255 255 255 255 165 165 165 110 110 110 220 220 220 255 255 255 255 255 255 
255 255 255 255 255 255 223 223 223 143 143 143 253 253 253 115 115 115 247 247 247 255 255 255 
255 255 255 254 254 254 112 112 112 251 251 251 255 255 255 229 229 229 126 126 126 255 255 255 
255 255 255 255 255 255 244 244 244 255 255 255 255 255 255 255 255 255 247 247 247 255 255 255 
255 255 255 255 255 255 255 255 255 255 255 255 255 255 255 255 255 255 255 255 255 255 255 255 
255 255 255 255 255 255 255 255 255 255 255 255 255 255 255 255 255 255 255 255 255 255 255 255 
255 255 255 255 255 255 255 255 255 255 255 255 255 255 255 255 255 255 255 255 255 255 255 255 
255 255 255 255 255 255 255 255 255 255 255 255 255 255 255 255 255 255 255 255 255 255 255 255 
255 255 255 255 255 255 255 255 255 255 255 255 255 255 255 255 255 255 255 255 255 255 255 255 
255 255 255 255 255 255 255 255 255 255 255 255 255 255 255 255 255 255 255 255 255 255 255 255 
255 255 255 255 255 255 255 255 255 255 255 255 255 255 255 255 255 255 255 255 255 255 255 255 
255 255 255 255 255 255 255 255 255 255 255 255 255 255 255 255 255 255 255 255 255 255 255 255 
233 233 233 255 255 255 255 255 255 255 255 255 255 255 255 255 255 255 255 255 255 255 255 255 
