P3
3 18 
255 
255 255 255 255 255 255 255 255 255 
255 255 255 255 255 255 255 255 255 
255 255 255 255 255 255 255 255 255 
255 255 255 255 255 255 255 255 255 
255 255 255 255 255 255 255 255 255 
255 255 255 255 255 255 255 255 255 
255 255 255 255 255 255 255 255 255 
255 255 255 255 255 255 255 255 255 
255 255 255 255 255 255 255 255 255 
255 255 255 255 255 255 255 255 255 
255 255 255 255 255 255 255 255 255 
255 255 255 255 255 255 255 255 255 
255 255 255 255 255 255 255 255 255 
248 248 248 88 88 88 255 255 255 
255 255 255 255 255 255 255 255 255 
255 255 255 255 255 255 255 255 255 
255 255 255 255 255 255 255 255 255 
255 255 255 255 255 255 255 255 255 
