P3
11 18 
255 
255 255 255 255 255 255 255 255 255 255 255 255 255 255 255 255 255 255 255 255 255 255 255 255 255 255 255 255 255 255 255 255 255 
255 255 255 255 255 255 222 222 222 118 118 118 126 126 126 125 125 125 124 124 124 239 239 239 255 255 255 255 255 255 255 255 255 
255 255 255 243 243 243 113 113 113 250 250 250 255 255 255 255 255 255 241 241 241 114 114 114 255 255 255 255 255 255 255 255 255 
255 255 255 146 146 146 231 231 231 255 255 255 255 255 255 255 255 255 255 255 255 181 181 181 185 185 185 255 255 255 255 255 255 
255 255 255 128 128 128 255 255 255 255 255 255 255 255 255 255 255 255 255 255 255 254 254 254 130 130 130 255 255 255 255 255 255 
255 255 255 131 131 131 255 255 255 255 255 255 255 255 255 255 255 255 255 255 255 255 255 255 125 125 125 255 255 255 255 255 255 
255 255 255 131 131 131 255 255 255 255 255 255 255 255 255 255 255 255 255 255 255 255 255 255 135 135 135 255 255 255 255 255 255 
255 255 255 131 131 131 255 255 255 255 255 255 255 255 255 255 255 255 255 255 255 255 255 255 135 135 135 255 255 255 255 255 255 
255 255 255 131 131 131 255 255 255 255 255 255 255 255 255 255 255 255 255 255 255 255 255 255 135 135 135 255 255 255 255 255 255 
255 255 255 120 120 120 255 255 255 255 255 255 255 255 255 255 255 255 255 255 255 255 255 255 134 134 134 255 255 255 255 255 255 
255 255 255 123 123 123 255 255 255 255 255 255 255 255 255 255 255 255 255 255 255 255 255 255 131 131 131 255 255 255 255 255 255 
255 255 255 144 144 144 217 217 217 255 255 255 255 255 255 255 255 255 255 255 255 195 195 195 179 179 179 255 255 255 255 255 255 
255 255 255 243 243 243 110 110 110 250 250 250 255 255 255 255 255 255 242 242 242 107 107 107 253 253 253 255 255 255 255 255 255 
255 255 255 255 255 255 223 223 223 117 117 117 126 126 126 125 125 125 121 121 121 235 235 235 255 255 255 255 255 255 255 255 255 
255 255 255 255 255 255 255 255 255 255 255 255 255 255 255 255 255 255 255 255 255 255 255 255 255 255 255 255 255 255 255 255 255 
255 255 255 255 255 255 255 255 255 255 255 255 255 255 255 255 255 255 255 255 255 255 255 255 255 255 255 255 255 255 255 255 255 
255 255 255 255 255 255 255 255 255 255 255 255 255 255 255 255 255 255 255 255 255 255 255 255 255 255 255 255 255 255 255 255 255 
255 255 255 255 255 255 255 255 255 255 255 255 255 255 255 255 255 255 255 255 255 255 255 255 255 255 255 255 255 255 255 255 255 
