P3
9 18 
255 
255 255 255 255 255 255 255 255 255 255 255 255 255 255 255 255 255 255 255 255 255 255 255 255 255 255 255 
255 255 255 255 255 255 154 154 154 126 126 126 132 132 132 128 128 128 149 149 149 252 252 252 255 255 255 
255 255 255 143 143 143 206 206 206 255 255 255 255 255 255 255 255 255 208 208 208 145 145 145 255 255 255 
242 242 242 140 140 140 255 255 255 255 255 255 255 255 255 255 255 255 255 255 255 129 129 129 255 255 255 
214 214 214 201 201 201 255 255 255 255 255 255 255 255 255 255 255 255 255 255 255 133 133 133 254 254 254 
255 255 255 255 255 255 255 255 255 255 255 255 255 255 255 255 255 255 255 255 255 128 128 128 255 255 255 
255 255 255 255 255 255 255 255 255 255 255 255 255 255 255 255 255 255 213 213 213 163 163 163 255 255 255 
255 255 255 255 255 255 255 255 255 255 255 255 255 255 255 249 249 249 124 124 124 254 254 254 255 255 255 
255 255 255 255 255 255 255 255 255 255 255 255 255 255 255 133 133 133 234 234 234 255 255 255 255 255 255 
255 255 255 255 255 255 255 255 255 255 255 255 152 152 152 209 209 209 255 255 255 255 255 255 255 255 255 
255 255 255 255 255 255 255 255 255 175 175 175 183 183 183 255 255 255 255 255 255 255 255 255 255 255 255 
255 255 255 255 255 255 198 198 198 157 157 157 255 255 255 255 255 255 255 255 255 255 255 255 255 255 255 
255 255 255 220 220 220 134 134 134 255 255 255 255 255 255 255 255 255 255 255 255 255 255 255 255 255 255 
255 255 255 59 59 59 129 129 129 131 131 131 131 131 131 131 131 131 131 131 131 131 131 131 166 166 166 
255 255 255 255 255 255 255 255 255 255 255 255 255 255 255 255 255 255 255 255 255 255 255 255 255 255 255 
255 255 255 255 255 255 255 255 255 255 255 255 255 255 255 255 255 255 255 255 255 255 255 255 255 255 255 
255 255 255 255 255 255 255 255 255 255 255 255 255 255 255 255 255 255 255 255 255 255 255 255 255 255 255 
255 255 255 255 255 255 255 255 255 255 255 255 255 255 255 255 255 255 255 255 255 255 255 255 255 255 255 
