P3
10 18 
255 
255 255 255 255 255 255 255 255 255 255 255 255 255 255 255 255 255 255 255 255 255 255 255 255 255 255 255 255 255 255 
255 255 255 255 255 255 253 253 253 147 147 147 124 124 124 130 130 130 132 132 132 146 146 146 251 251 251 255 255 255 
255 255 255 255 255 255 127 127 127 212 212 212 255 255 255 255 255 255 255 255 255 220 220 220 138 138 138 255 255 255 
255 255 255 234 234 234 143 143 143 255 255 255 255 255 255 255 255 255 255 255 255 255 255 255 135 135 135 253 253 253 
255 255 255 224 224 224 214 214 214 255 255 255 255 255 255 255 255 255 255 255 255 255 255 255 159 159 159 230 230 230 
255 255 255 255 255 255 255 255 255 255 255 255 255 255 255 255 255 255 255 255 255 255 255 255 123 123 123 253 253 253 
255 255 255 255 255 255 255 255 255 255 255 255 255 255 255 255 255 255 251 251 251 149 149 149 176 176 176 255 255 255 
255 255 255 255 255 255 255 255 255 255 255 255 153 153 153 103 103 103 44 44 44 155 155 155 255 255 255 255 255 255 
255 255 255 255 255 255 255 255 255 255 255 255 255 255 255 255 255 255 255 255 255 190 190 190 129 129 129 255 255 255 
255 255 255 255 255 255 255 255 255 255 255 255 255 255 255 255 255 255 255 255 255 255 255 255 179 179 179 199 199 199 
255 255 255 182 182 182 255 255 255 255 255 255 255 255 255 255 255 255 255 255 255 255 255 255 231 231 231 156 156 156 
255 255 255 176 176 176 207 207 207 255 255 255 255 255 255 255 255 255 255 255 255 255 255 255 197 197 197 182 182 182 
255 255 255 252 252 252 113 113 113 225 225 225 255 255 255 255 255 255 255 255 255 241 241 241 107 107 107 251 251 251 
255 255 255 255 255 255 247 247 247 137 137 137 122 122 122 126 126 126 130 130 130 133 133 133 239 239 239 255 255 255 
255 255 255 255 255 255 255 255 255 255 255 255 255 255 255 255 255 255 255 255 255 255 255 255 255 255 255 255 255 255 
255 255 255 255 255 255 255 255 255 255 255 255 255 255 255 255 255 255 255 255 255 255 255 255 255 255 255 255 255 255 
255 255 255 255 255 255 255 255 255 255 255 255 255 255 255 255 255 255 255 255 255 255 255 255 255 255 255 255 255 255 
255 255 255 255 255 255 255 255 255 255 255 255 255 255 255 255 255 255 255 255 255 255 255 255 255 255 255 255 255 255 
