P3
11 18 
255 
255 255 255 255 255 255 255 255 255 255 255 255 255 255 255 255 255 255 255 255 255 255 255 255 255 255 255 255 255 255 255 255 255 
255 255 255 255 255 255 255 255 255 255 255 255 255 255 255 255 255 255 227 227 227 66 66 66 255 255 255 255 255 255 255 255 255 
255 255 255 255 255 255 255 255 255 255 255 255 255 255 255 255 255 255 122 122 122 128 128 128 255 255 255 255 255 255 255 255 255 
255 255 255 255 255 255 255 255 255 255 255 255 255 255 255 168 168 168 198 198 198 131 131 131 255 255 255 255 255 255 255 255 255 
255 255 255 255 255 255 255 255 255 255 255 255 236 236 236 130 130 130 255 255 255 131 131 131 255 255 255 255 255 255 255 255 255 
255 255 255 255 255 255 255 255 255 255 255 255 121 121 121 242 242 242 255 255 255 131 131 131 255 255 255 255 255 255 255 255 255 
255 255 255 255 255 255 255 255 255 182 182 182 179 179 179 255 255 255 255 255 255 131 131 131 255 255 255 255 255 255 255 255 255 
255 255 255 255 255 255 243 243 243 118 118 118 255 255 255 255 255 255 255 255 255 131 131 131 255 255 255 255 255 255 255 255 255 
255 255 255 255 255 255 126 126 126 233 233 233 255 255 255 255 255 255 255 255 255 131 131 131 255 255 255 255 255 255 255 255 255 
255 255 255 197 197 197 161 161 161 255 255 255 255 255 255 255 255 255 255 255 255 131 131 131 255 255 255 255 255 255 255 255 255 
255 255 255 117 117 117 135 135 135 135 135 135 135 135 135 135 135 135 135 135 135 70 70 70 135 135 135 135 135 135 250 250 250 
255 255 255 255 255 255 255 255 255 255 255 255 255 255 255 255 255 255 255 255 255 131 131 131 255 255 255 255 255 255 255 255 255 
255 255 255 255 255 255 255 255 255 255 255 255 255 255 255 255 255 255 255 255 255 131 131 131 255 255 255 255 255 255 255 255 255 
255 255 255 255 255 255 255 255 255 255 255 255 255 255 255 255 255 255 255 255 255 131 131 131 255 255 255 255 255 255 255 255 255 
255 255 255 255 255 255 255 255 255 255 255 255 255 255 255 255 255 255 255 255 255 255 255 255 255 255 255 255 255 255 255 255 255 
255 255 255 255 255 255 255 255 255 255 255 255 255 255 255 255 255 255 255 255 255 255 255 255 255 255 255 255 255 255 255 255 255 
255 255 255 255 255 255 255 255 255 255 255 255 255 255 255 255 255 255 255 255 255 255 255 255 255 255 255 255 255 255 255 255 255 
255 255 255 255 255 255 255 255 255 255 255 255 255 255 255 255 255 255 255 255 255 255 255 255 255 255 255 255 255 255 255 255 255 
