P3
9 18 
255 
255 255 255 255 255 255 255 255 255 255 255 255 255 255 255 255 255 255 255 255 255 255 255 255 255 255 255 
255 255 255 221 221 221 91 91 91 135 135 135 135 135 135 135 135 135 135 135 135 135 135 135 235 235 235 
255 255 255 195 195 195 193 193 193 255 255 255 255 255 255 255 255 255 255 255 255 255 255 255 255 255 255 
255 255 255 168 168 168 221 221 221 255 255 255 255 255 255 255 255 255 255 255 255 255 255 255 255 255 255 
255 255 255 142 142 142 248 248 248 255 255 255 255 255 255 255 255 255 255 255 255 255 255 255 255 255 255 
255 255 255 136 136 136 193 193 193 149 149 149 139 139 139 132 132 132 204 204 204 255 255 255 255 255 255 
255 255 255 144 144 144 199 199 199 255 255 255 255 255 255 255 255 255 155 155 155 178 178 178 255 255 255 
255 255 255 255 255 255 255 255 255 255 255 255 255 255 255 255 255 255 255 255 255 111 111 111 251 251 251 
255 255 255 255 255 255 255 255 255 255 255 255 255 255 255 255 255 255 255 255 255 170 170 170 205 205 205 
255 255 255 255 255 255 255 255 255 255 255 255 255 255 255 255 255 255 255 255 255 199 199 199 184 184 184 
249 249 249 167 167 167 255 255 255 255 255 255 255 255 255 255 255 255 255 255 255 178 178 178 198 198 198 
255 255 255 127 127 127 255 255 255 255 255 255 255 255 255 255 255 255 255 255 255 132 132 132 243 243 243 
255 255 255 180 180 180 178 178 178 255 255 255 255 255 255 255 255 255 228 228 228 129 129 129 255 255 255 
255 255 255 255 255 255 179 179 179 126 126 126 128 128 128 126 126 126 135 135 135 250 250 250 255 255 255 
255 255 255 255 255 255 255 255 255 255 255 255 255 255 255 255 255 255 255 255 255 255 255 255 255 255 255 
255 255 255 255 255 255 255 255 255 255 255 255 255 255 255 255 255 255 255 255 255 255 255 255 255 255 255 
255 255 255 255 255 255 255 255 255 255 255 255 255 255 255 255 255 255 255 255 255 255 255 255 255 255 255 
255 255 255 255 255 255 255 255 255 255 255 255 255 255 255 255 255 255 255 255 255 255 255 255 255 255 255 
