P3
10 18 
255 
255 255 255 255 255 255 255 255 255 255 255 255 255 255 255 255 255 255 255 255 255 255 255 255 255 255 255 255 255 255 
255 255 255 255 255 255 255 255 255 254 254 254 170 170 170 130 130 130 132 132 132 188 188 188 255 255 255 255 255 255 
255 255 255 255 255 255 248 248 248 122 122 122 205 205 205 255 255 255 255 255 255 255 255 255 255 255 255 255 255 255 
255 255 255 255 255 255 141 141 141 233 233 233 255 255 255 255 255 255 255 255 255 255 255 255 255 255 255 255 255 255 
255 255 255 231 231 231 162 162 162 255 255 255 255 255 255 255 255 255 255 255 255 255 255 255 255 255 255 255 255 255 
255 255 255 156 156 156 241 241 241 179 179 179 125 125 125 127 127 127 126 126 126 224 224 224 255 255 255 255 255 255 
255 255 255 140 140 140 134 134 134 195 195 195 255 255 255 255 255 255 246 246 246 119 119 119 219 219 219 255 255 255 
255 255 255 91 91 91 220 220 220 255 255 255 255 255 255 255 255 255 255 255 255 248 248 248 114 114 114 255 255 255 
255 255 255 131 131 131 255 255 255 255 255 255 255 255 255 255 255 255 255 255 255 255 255 255 121 121 121 254 254 254 
255 255 255 134 134 134 255 255 255 255 255 255 255 255 255 255 255 255 255 255 255 255 255 255 138 138 138 245 245 245 
255 255 255 131 131 131 255 255 255 255 255 255 255 255 255 255 255 255 255 255 255 255 255 255 122 122 122 255 255 255 
255 255 255 171 171 171 202 202 202 255 255 255 255 255 255 255 255 255 255 255 255 251 251 251 118 118 118 255 255 255 
255 255 255 253 253 253 110 110 110 230 230 230 255 255 255 255 255 255 255 255 255 142 142 142 208 208 208 255 255 255 
255 255 255 255 255 255 247 247 247 136 136 136 130 130 130 134 134 134 126 126 126 194 194 194 255 255 255 255 255 255 
255 255 255 255 255 255 255 255 255 255 255 255 255 255 255 255 255 255 255 255 255 255 255 255 255 255 255 255 255 255 
255 255 255 255 255 255 255 255 255 255 255 255 255 255 255 255 255 255 255 255 255 255 255 255 255 255 255 255 255 255 
255 255 255 255 255 255 255 255 255 255 255 255 255 255 255 255 255 255 255 255 255 255 255 255 255 255 255 255 255 255 
255 255 255 255 255 255 255 255 255 255 255 255 255 255 255 255 255 255 255 255 255 255 255 255 255 255 255 255 255 255 
