P3
9 18 
255 
255 255 255 255 255 255 255 255 255 255 255 255 255 255 255 255 255 255 255 255 255 255 255 255 255 255 255 
217 217 217 131 131 131 131 131 131 131 131 131 131 131 131 131 131 131 131 131 131 131 131 131 91 91 91 
255 255 255 255 255 255 255 255 255 255 255 255 255 255 255 255 255 255 255 255 255 221 221 221 174 174 174 
255 255 255 255 255 255 255 255 255 255 255 255 255 255 255 255 255 255 255 255 255 141 141 141 252 252 252 
255 255 255 255 255 255 255 255 255 255 255 255 255 255 255 255 255 255 239 239 239 154 154 154 255 255 255 
255 255 255 255 255 255 255 255 255 255 255 255 255 255 255 255 255 255 151 151 151 241 241 241 255 255 255 
255 255 255 255 255 255 255 255 255 255 255 255 255 255 255 251 251 251 141 141 141 255 255 255 255 255 255 
255 255 255 255 255 255 255 255 255 255 255 255 255 255 255 168 168 168 223 223 223 255 255 255 255 255 255 
255 255 255 255 255 255 255 255 255 255 255 255 255 255 255 135 135 135 255 255 255 255 255 255 255 255 255 
255 255 255 255 255 255 255 255 255 255 255 255 192 192 192 197 197 197 255 255 255 255 255 255 255 255 255 
255 255 255 255 255 255 255 255 255 255 255 255 133 133 133 255 255 255 255 255 255 255 255 255 255 255 255 
255 255 255 255 255 255 255 255 255 219 219 219 171 171 171 255 255 255 255 255 255 255 255 255 255 255 255 
255 255 255 255 255 255 255 255 255 137 137 137 251 251 251 255 255 255 255 255 255 255 255 255 255 255 255 
255 255 255 255 255 255 238 238 238 150 150 150 255 255 255 255 255 255 255 255 255 255 255 255 255 255 255 
255 255 255 255 255 255 255 255 255 255 255 255 255 255 255 255 255 255 255 255 255 255 255 255 255 255 255 
255 255 255 255 255 255 255 255 255 255 255 255 255 255 255 255 255 255 255 255 255 255 255 255 255 255 255 
255 255 255 255 255 255 255 255 255 255 255 255 255 255 255 255 255 255 255 255 255 255 255 255 255 255 255 
255 255 255 255 255 255 255 255 255 255 255 255 255 255 255 255 255 255 255 255 255 255 255 255 255 255 255 
