P3
10 18 
255 
255 255 255 255 255 255 255 255 255 255 255 255 255 255 255 255 255 255 255 255 255 255 255 255 255 255 255 255 255 255 
255 255 255 255 255 255 255 255 255 183 183 183 121 121 121 131 131 131 130 130 130 121 121 121 230 230 230 255 255 255 
255 255 255 255 255 255 174 174 174 158 158 158 255 255 255 255 255 255 255 255 255 242 242 242 96 96 96 241 241 241 
255 255 255 255 255 255 117 117 117 255 255 255 255 255 255 255 255 255 255 255 255 255 255 255 218 218 218 152 152 152 
255 255 255 255 255 255 127 127 127 255 255 255 255 255 255 255 255 255 255 255 255 255 255 255 253 253 253 129 129 129 
255 255 255 255 255 255 123 123 123 253 253 253 255 255 255 255 255 255 255 255 255 255 255 255 203 203 203 173 173 173 
255 255 255 255 255 255 214 214 214 127 127 127 245 245 245 255 255 255 255 255 255 213 213 213 120 120 120 254 254 254 
255 255 255 255 255 255 255 255 255 203 203 203 56 56 56 109 109 109 84 84 84 87 87 87 245 245 245 255 255 255 
255 255 255 255 255 255 176 176 176 155 155 155 251 251 251 255 255 255 255 255 255 228 228 228 129 129 129 233 233 233 
255 255 255 243 243 243 132 132 132 255 255 255 255 255 255 255 255 255 255 255 255 255 255 255 251 251 251 134 134 134 
255 255 255 201 201 201 181 181 181 255 255 255 255 255 255 255 255 255 255 255 255 255 255 255 255 255 255 133 133 133 
255 255 255 224 224 224 147 147 147 255 255 255 255 255 255 255 255 255 255 255 255 255 255 255 255 255 255 116 116 116 
255 255 255 255 255 255 108 108 108 214 214 214 255 255 255 255 255 255 255 255 255 255 255 255 148 148 148 175 175 175 
255 255 255 255 255 255 249 249 249 147 147 147 123 123 123 127 127 127 128 128 128 117 117 117 192 192 192 255 255 255 
255 255 255 255 255 255 255 255 255 255 255 255 255 255 255 255 255 255 255 255 255 255 255 255 255 255 255 255 255 255 
255 255 255 255 255 255 255 255 255 255 255 255 255 255 255 255 255 255 255 255 255 255 255 255 255 255 255 255 255 255 
255 255 255 255 255 255 255 255 255 255 255 255 255 255 255 255 255 255 255 255 255 255 255 255 255 255 255 255 255 255 
255 255 255 255 255 255 255 255 255 255 255 255 255 255 255 255 255 255 255 255 255 255 255 255 255 255 255 255 255 255 
