P3
11 18 
255 
255 255 255 255 255 255 255 255 255 255 255 255 255 255 255 255 255 255 255 255 255 255 255 255 255 255 255 255 255 255 255 255 255 
255 255 255 255 255 255 255 255 255 162 162 162 122 122 122 131 131 131 128 128 128 145 145 145 254 254 254 255 255 255 255 255 255 
255 255 255 255 255 255 155 155 155 184 184 184 255 255 255 255 255 255 255 255 255 211 211 211 136 136 136 255 255 255 255 255 255 
255 255 255 248 248 248 125 125 125 255 255 255 255 255 255 255 255 255 255 255 255 255 255 255 142 142 142 234 234 234 255 255 255 
255 255 255 192 192 192 195 195 195 255 255 255 255 255 255 255 255 255 255 255 255 255 255 255 214 214 214 172 172 172 255 255 255 
255 255 255 170 170 170 221 221 221 255 255 255 255 255 255 255 255 255 255 255 255 255 255 255 244 244 244 144 144 144 255 255 255 
255 255 255 195 195 195 194 194 194 255 255 255 255 255 255 255 255 255 255 255 255 255 255 255 238 238 238 135 135 135 255 255 255 
255 255 255 251 251 251 127 127 127 255 255 255 255 255 255 255 255 255 255 255 255 255 255 255 146 146 146 138 138 138 255 255 255 
255 255 255 255 255 255 183 183 183 160 160 160 254 254 254 255 255 255 249 249 249 150 150 150 166 166 166 153 153 153 255 255 255 
255 255 255 255 255 255 255 255 255 207 207 207 133 133 133 134 134 134 135 135 135 220 220 220 197 197 197 189 189 189 255 255 255 
255 255 255 255 255 255 255 255 255 255 255 255 255 255 255 255 255 255 255 255 255 255 255 255 136 136 136 243 243 243 255 255 255 
255 255 255 255 255 255 255 255 255 255 255 255 255 255 255 255 255 255 255 255 255 231 231 231 133 133 133 255 255 255 255 255 255 
255 255 255 255 255 255 255 255 255 255 255 255 255 255 255 255 255 255 220 220 220 108 108 108 245 245 245 255 255 255 255 255 255 
255 255 255 255 255 255 255 255 255 179 179 179 135 135 135 128 128 128 150 150 150 249 249 249 255 255 255 255 255 255 255 255 255 
255 255 255 255 255 255 255 255 255 255 255 255 255 255 255 255 255 255 255 255 255 255 255 255 255 255 255 255 255 255 255 255 255 
255 255 255 255 255 255 255 255 255 255 255 255 255 255 255 255 255 255 255 255 255 255 255 255 255 255 255 255 255 255 255 255 255 
255 255 255 255 255 255 255 255 255 255 255 255 255 255 255 255 255 255 255 255 255 255 255 255 255 255 255 255 255 255 255 255 255 
255 255 255 255 255 255 255 255 255 255 255 255 255 255 255 255 255 255 255 255 255 255 255 255 255 255 255 255 255 255 255 255 255 
