P3
3 18 
255 
255 255 255 255 255 255 255 255 255 
255 255 255 255 255 255 255 255 255 
255 255 255 255 255 255 255 255 255 
255 255 255 255 255 255 255 255 255 
255 255 255 83 83 83 250 250 250 
255 255 255 255 255 255 255 255 255 
255 255 255 255 255 255 255 255 255 
255 255 255 255 255 255 255 255 255 
255 255 255 255 255 255 255 255 255 
255 255 255 255 255 255 255 255 255 
255 255 255 255 255 255 255 255 255 
255 255 255 255 255 255 255 255 255 
255 255 255 136 136 136 255 255 255 
255 255 255 136 136 136 255 255 255 
255 255 255 128 128 128 255 255 255 
231 231 231 200 200 200 255 255 255 
255 255 255 255 255 255 255 255 255 
255 255 255 255 255 255 255 255 255 
