P3
8 18 
255 
255 255 255 255 255 255 255 255 255 255 255 255 255 255 255 255 255 255 255 255 255 255 255 255 
255 255 255 255 255 255 191 191 191 126 126 126 132 132 132 128 128 128 178 178 178 255 255 255 
255 255 255 215 215 215 149 149 149 255 255 255 255 255 255 255 255 255 160 160 160 210 210 210 
255 255 255 136 136 136 252 252 252 255 255 255 255 255 255 255 255 255 253 253 253 136 136 136 
255 255 255 236 236 236 255 255 255 255 255 255 255 255 255 255 255 255 255 255 255 130 130 130 
255 255 255 255 255 255 255 255 255 255 255 255 255 255 255 255 255 255 226 226 226 159 159 159 
255 255 255 255 255 255 255 255 255 255 255 255 255 255 255 253 253 253 126 126 126 248 248 248 
255 255 255 255 255 255 255 255 255 255 255 255 254 254 254 130 130 130 227 227 227 255 255 255 
255 255 255 255 255 255 255 255 255 255 255 255 150 150 150 224 224 224 255 255 255 255 255 255 
255 255 255 255 255 255 255 255 255 255 255 255 129 129 129 255 255 255 255 255 255 255 255 255 
255 255 255 255 255 255 255 255 255 255 255 255 203 203 203 255 255 255 255 255 255 255 255 255 
255 255 255 255 255 255 255 255 255 255 255 255 255 255 255 255 255 255 255 255 255 255 255 255 
255 255 255 255 255 255 255 255 255 255 255 255 255 255 255 255 255 255 255 255 255 255 255 255 
255 255 255 255 255 255 255 255 255 237 237 237 99 99 99 255 255 255 255 255 255 255 255 255 
255 255 255 255 255 255 255 255 255 255 255 255 255 255 255 255 255 255 255 255 255 255 255 255 
255 255 255 255 255 255 255 255 255 255 255 255 255 255 255 255 255 255 255 255 255 255 255 255 
255 255 255 255 255 255 255 255 255 255 255 255 255 255 255 255 255 255 255 255 255 255 255 255 
255 255 255 255 255 255 255 255 255 255 255 255 255 255 255 255 255 255 255 255 255 255 255 255 
