P3
7 18 
255 
255 255 255 255 255 255 255 255 255 194 194 194 231 231 231 255 255 255 255 255 255 
255 255 255 255 255 255 255 255 255 126 126 126 144 144 144 255 255 255 255 255 255 
255 255 255 255 255 255 209 209 209 180 180 180 135 135 135 252 252 252 255 255 255 
255 255 255 255 255 255 134 134 134 252 252 252 207 207 207 178 178 178 255 255 255 
255 255 255 244 244 244 141 141 141 255 255 255 255 255 255 126 126 126 255 255 255 
255 255 255 157 157 157 225 225 225 255 255 255 255 255 255 155 155 155 224 224 224 
255 255 255 124 124 124 255 255 255 255 255 255 255 255 255 242 242 242 135 135 135 
255 255 255 255 255 255 255 255 255 255 255 255 255 255 255 255 255 255 255 255 255 
255 255 255 255 255 255 255 255 255 255 255 255 255 255 255 255 255 255 255 255 255 
255 255 255 255 255 255 255 255 255 255 255 255 255 255 255 255 255 255 255 255 255 
255 255 255 255 255 255 255 255 255 255 255 255 255 255 255 255 255 255 255 255 255 
255 255 255 255 255 255 255 255 255 255 255 255 255 255 255 255 255 255 255 255 255 
255 255 255 255 255 255 255 255 255 255 255 255 255 255 255 255 255 255 255 255 255 
255 255 255 255 255 255 255 255 255 255 255 255 255 255 255 255 255 255 255 255 255 
255 255 255 255 255 255 255 255 255 255 255 255 255 255 255 255 255 255 255 255 255 
255 255 255 255 255 255 255 255 255 255 255 255 255 255 255 255 255 255 255 255 255 
255 255 255 255 255 255 255 255 255 255 255 255 255 255 255 255 255 255 255 255 255 
255 255 255 255 255 255 255 255 255 255 255 255 255 255 255 255 255 255 255 255 255 
