P3
10 21 
255 
255 255 255 255 255 255 255 255 255 255 255 255 255 255 255 255 255 255 255 255 255 255 255 255 255 255 255 255 255 255 
255 255 255 255 255 255 255 255 255 255 255 255 255 255 255 255 255 255 255 255 255 255 255 255 255 255 255 255 255 255 
255 255 255 255 255 255 255 255 255 255 255 255 255 255 255 255 255 255 255 255 255 255 255 255 255 255 255 255 255 255 
255 255 255 255 255 255 255 255 255 255 255 255 255 255 255 255 255 255 255 255 255 255 255 255 255 255 255 255 255 255 
255 255 255 255 255 255 255 255 255 255 255 255 255 255 255 255 255 255 255 255 255 255 255 255 255 255 255 255 255 255 
255 255 255 255 255 255 255 255 255 255 255 255 255 255 255 255 255 255 255 255 255 255 255 255 255 255 255 255 255 255 
255 255 255 253 253 253 154 154 154 129 129 129 132 132 132 132 132 132 142 142 142 250 250 250 255 255 255 255 255 255 
255 255 255 135 135 135 213 213 213 255 255 255 255 255 255 255 255 255 229 229 229 144 144 144 255 255 255 255 255 255 
255 255 255 161 161 161 255 255 255 255 255 255 255 255 255 255 255 255 255 255 255 139 139 139 255 255 255 255 255 255 
255 255 255 255 255 255 255 255 255 255 255 255 255 255 255 255 255 255 255 255 255 135 135 135 255 255 255 255 255 255 
255 255 255 255 255 255 218 218 218 134 134 134 131 131 131 135 135 135 135 135 135 77 77 77 255 255 255 255 255 255 
255 255 255 148 148 148 146 146 146 246 246 246 255 255 255 255 255 255 255 255 255 135 135 135 255 255 255 255 255 255 
238 238 238 130 130 130 255 255 255 255 255 255 255 255 255 255 255 255 255 255 255 135 135 135 255 255 255 255 255 255 
220 220 220 169 169 169 255 255 255 255 255 255 255 255 255 255 255 255 255 255 255 75 75 75 255 255 255 255 255 255 
253 253 253 111 111 111 253 253 253 255 255 255 255 255 255 253 253 253 136 136 136 97 97 97 255 255 255 255 255 255 
255 255 255 213 213 213 116 116 116 131 131 131 129 129 129 128 128 128 224 224 224 170 170 170 232 232 232 255 255 255 
255 255 255 255 255 255 255 255 255 255 255 255 255 255 255 255 255 255 255 255 255 255 255 255 255 255 255 255 255 255 
255 255 255 255 255 255 255 255 255 255 255 255 255 255 255 255 255 255 255 255 255 255 255 255 255 255 255 255 255 255 
255 255 255 255 255 255 255 255 255 255 255 255 255 255 255 255 255 255 255 255 255 255 255 255 255 255 255 255 255 255 
255 255 255 255 255 255 255 255 255 255 255 255 255 255 255 255 255 255 255 255 255 255 255 255 255 255 255 255 255 255 
255 255 255 255 255 255 255 255 255 255 255 255 255 255 255 255 255 255 255 255 255 255 255 255 255 255 255 255 255 255 
