P3
9 21 
255 
255 255 255 255 255 255 255 255 255 255 255 255 255 255 255 255 255 255 255 255 255 255 255 255 255 255 255 
255 255 255 255 255 255 255 255 255 255 255 255 255 255 255 255 255 255 255 255 255 255 255 255 255 255 255 
255 255 255 135 135 135 255 255 255 255 255 255 255 255 255 255 255 255 255 255 255 255 255 255 255 255 255 
255 255 255 135 135 135 255 255 255 255 255 255 255 255 255 255 255 255 255 255 255 255 255 255 255 255 255 
255 255 255 135 135 135 255 255 255 255 255 255 255 255 255 255 255 255 255 255 255 255 255 255 255 255 255 
255 255 255 135 135 135 255 255 255 255 255 255 255 255 255 255 255 255 255 255 255 255 255 255 255 255 255 
255 255 255 135 135 135 187 187 187 126 126 126 130 130 130 128 128 128 150 150 150 255 255 255 255 255 255 
255 255 255 77 77 77 174 174 174 255 255 255 255 255 255 255 255 255 200 200 200 153 153 153 255 255 255 
255 255 255 83 83 83 255 255 255 255 255 255 255 255 255 255 255 255 255 255 255 111 111 111 253 253 253 
255 255 255 135 135 135 255 255 255 255 255 255 255 255 255 255 255 255 255 255 255 160 160 160 216 216 216 
255 255 255 135 135 135 255 255 255 255 255 255 255 255 255 255 255 255 255 255 255 188 188 188 190 190 190 
255 255 255 135 135 135 255 255 255 255 255 255 255 255 255 255 255 255 255 255 255 192 192 192 196 196 196 
255 255 255 135 135 135 255 255 255 255 255 255 255 255 255 255 255 255 255 255 255 163 163 163 227 227 227 
255 255 255 108 108 108 255 255 255 255 255 255 255 255 255 255 255 255 255 255 255 133 133 133 254 254 254 
255 255 255 60 60 60 192 192 192 255 255 255 255 255 255 255 255 255 201 201 201 167 167 167 255 255 255 
255 255 255 135 135 135 175 175 175 126 126 126 127 127 127 125 125 125 152 152 152 255 255 255 255 255 255 
255 255 255 255 255 255 255 255 255 255 255 255 255 255 255 255 255 255 255 255 255 255 255 255 255 255 255 
255 255 255 255 255 255 255 255 255 255 255 255 255 255 255 255 255 255 255 255 255 255 255 255 255 255 255 
255 255 255 255 255 255 255 255 255 255 255 255 255 255 255 255 255 255 255 255 255 255 255 255 255 255 255 
255 255 255 255 255 255 255 255 255 255 255 255 255 255 255 255 255 255 255 255 255 255 255 255 255 255 255 
255 255 255 255 255 255 255 255 255 255 255 255 255 255 255 255 255 255 255 255 255 255 255 255 255 255 255 
