P3
12 16 
255 
255 255 255 255 255 255 255 255 255 255 255 255 255 255 255 255 255 255 255 255 255 255 255 255 255 255 255 255 255 255 255 255 255 255 255 255 
255 255 255 255 255 255 255 255 255 255 255 255 255 255 255 255 255 255 255 255 255 255 255 255 255 255 255 255 255 255 255 255 255 255 255 255 
255 255 255 255 255 255 255 255 255 255 255 255 255 255 255 255 255 255 255 255 255 255 255 255 255 255 255 255 255 255 255 255 255 255 255 255 
255 255 255 255 255 255 255 255 255 255 255 255 255 255 255 226 226 226 62 62 62 255 255 255 255 255 255 255 255 255 255 255 255 255 255 255 
255 255 255 255 255 255 255 255 255 255 255 255 255 255 255 144 144 144 173 173 173 202 202 202 255 255 255 255 255 255 255 255 255 255 255 255 
255 255 255 255 255 255 255 255 255 255 255 255 255 255 255 136 136 136 254 254 254 140 140 140 255 255 255 255 255 255 255 255 255 255 255 255 
255 255 255 255 255 255 255 255 255 255 255 255 201 201 201 194 194 194 255 255 255 147 147 147 250 250 250 255 255 255 255 255 255 255 255 255 
255 255 255 255 255 255 255 255 255 255 255 255 145 145 145 255 255 255 255 255 255 224 224 224 177 177 177 255 255 255 255 255 255 255 255 255 
255 255 255 255 255 255 255 255 255 250 250 250 155 155 155 255 255 255 255 255 255 255 255 255 148 148 148 255 255 255 255 255 255 255 255 255 
255 255 255 255 255 255 255 255 255 179 179 179 230 230 230 255 255 255 255 255 255 255 255 255 172 172 172 236 236 236 255 255 255 255 255 255 
255 255 255 255 255 255 255 255 255 157 157 157 255 255 255 255 255 255 255 255 255 255 255 255 247 247 247 164 164 164 255 255 255 255 255 255 
255 255 255 255 255 255 237 237 237 98 98 98 135 135 135 135 135 135 135 135 135 135 135 135 135 135 135 109 109 109 255 255 255 255 255 255 
255 255 255 255 255 255 162 162 162 247 247 247 255 255 255 255 255 255 255 255 255 255 255 255 255 255 255 193 193 193 214 214 214 255 255 255 
255 255 255 255 255 255 146 146 146 255 255 255 255 255 255 255 255 255 255 255 255 255 255 255 255 255 255 253 253 253 146 146 146 255 255 255 
255 255 255 216 216 216 176 176 176 255 255 255 255 255 255 255 255 255 255 255 255 255 255 255 255 255 255 255 255 255 138 138 138 253 253 253 
255 255 255 136 136 136 247 247 247 255 255 255 255 255 255 255 255 255 255 255 255 255 255 255 255 255 255 255 255 255 196 196 196 187 187 187 
