P3
11 16 
255 
255 255 255 255 255 255 255 255 255 255 255 255 255 255 255 255 255 255 255 255 255 255 255 255 255 255 255 255 255 255 255 255 255 
255 255 255 255 255 255 255 255 255 255 255 255 255 255 255 255 255 255 255 255 255 255 255 255 255 255 255 255 255 255 255 255 255 
255 255 255 255 255 255 255 255 255 255 255 255 255 255 255 255 255 255 255 255 255 255 255 255 255 255 255 255 255 255 255 255 255 
255 255 255 133 133 133 123 123 123 123 123 123 124 124 124 127 127 127 125 125 125 163 163 163 254 254 254 255 255 255 255 255 255 
255 255 255 135 135 135 255 255 255 255 255 255 255 255 255 255 255 255 255 255 255 206 206 206 134 134 134 255 255 255 255 255 255 
255 255 255 135 135 135 255 255 255 255 255 255 255 255 255 255 255 255 255 255 255 255 255 255 121 121 121 254 254 254 255 255 255 
255 255 255 135 135 135 255 255 255 255 255 255 255 255 255 255 255 255 255 255 255 255 255 255 135 135 135 247 247 247 255 255 255 
255 255 255 135 135 135 255 255 255 255 255 255 255 255 255 255 255 255 255 255 255 255 255 255 121 121 121 255 255 255 255 255 255 
255 255 255 135 135 135 255 255 255 255 255 255 255 255 255 255 255 255 251 251 251 155 155 155 172 172 172 255 255 255 255 255 255 
255 255 255 133 133 133 127 127 127 127 127 127 127 127 127 114 114 114 61 61 61 127 127 127 251 251 251 255 255 255 255 255 255 
255 255 255 135 135 135 255 255 255 255 255 255 255 255 255 255 255 255 255 255 255 222 222 222 120 120 120 250 250 250 255 255 255 
255 255 255 135 135 135 255 255 255 255 255 255 255 255 255 255 255 255 255 255 255 255 255 255 229 229 229 151 151 151 255 255 255 
255 255 255 135 135 135 255 255 255 255 255 255 255 255 255 255 255 255 255 255 255 255 255 255 255 255 255 128 128 128 255 255 255 
255 255 255 135 135 135 255 255 255 255 255 255 255 255 255 255 255 255 255 255 255 255 255 255 242 242 242 131 131 131 255 255 255 
255 255 255 135 135 135 255 255 255 255 255 255 255 255 255 255 255 255 255 255 255 250 250 250 113 113 113 228 228 228 255 255 255 
255 255 255 134 134 134 131 131 131 131 131 131 131 131 131 132 132 132 134 134 134 127 127 127 222 222 222 255 255 255 255 255 255 
