P3
12 16 
255 
255 255 255 255 255 255 255 255 255 255 255 255 255 255 255 255 255 255 255 255 255 255 255 255 255 255 255 255 255 255 255 255 255 255 255 255 
255 255 255 255 255 255 255 255 255 255 255 255 255 255 255 255 255 255 255 255 255 255 255 255 255 255 255 255 255 255 255 255 255 255 255 255 
255 255 255 255 255 255 255 255 255 255 255 255 255 255 255 255 255 255 255 255 255 255 255 255 255 255 255 255 255 255 255 255 255 255 255 255 
255 255 255 255 255 255 248 248 248 145 145 145 132 132 132 130 130 130 119 119 119 120 120 120 219 219 219 255 255 255 255 255 255 255 255 255 
255 255 255 251 251 251 115 115 115 232 232 232 255 255 255 255 255 255 255 255 255 247 247 247 116 116 116 215 215 215 255 255 255 255 255 255 
255 255 255 152 152 152 225 225 225 255 255 255 255 255 255 255 255 255 255 255 255 255 255 255 249 249 249 117 117 117 255 255 255 255 255 255 
255 255 255 134 134 134 255 255 255 255 255 255 255 255 255 255 255 255 255 255 255 255 255 255 255 255 255 124 124 124 253 253 253 255 255 255 
247 247 247 146 146 146 255 255 255 255 255 255 255 255 255 255 255 255 255 255 255 255 255 255 255 255 255 252 252 252 255 255 255 255 255 255 
227 227 227 165 165 165 255 255 255 255 255 255 255 255 255 255 255 255 255 255 255 255 255 255 255 255 255 255 255 255 255 255 255 255 255 255 
223 223 223 167 167 167 255 255 255 255 255 255 255 255 255 255 255 255 255 255 255 255 255 255 255 255 255 255 255 255 255 255 255 255 255 255 
226 226 226 164 164 164 255 255 255 255 255 255 255 255 255 255 255 255 255 255 255 255 255 255 255 255 255 255 255 255 255 255 255 255 255 255 
248 248 248 143 143 143 255 255 255 255 255 255 255 255 255 255 255 255 255 255 255 255 255 255 255 255 255 249 249 249 255 255 255 255 255 255 
255 255 255 129 129 129 255 255 255 255 255 255 255 255 255 255 255 255 255 255 255 255 255 255 255 255 255 124 124 124 253 253 253 255 255 255 
255 255 255 152 152 152 218 218 218 255 255 255 255 255 255 255 255 255 255 255 255 255 255 255 250 250 250 120 120 120 255 255 255 255 255 255 
255 255 255 251 251 251 109 109 109 226 226 226 255 255 255 255 255 255 255 255 255 247 247 247 119 119 119 216 216 216 255 255 255 255 255 255 
255 255 255 255 255 255 248 248 248 137 137 137 123 123 123 125 125 125 116 116 116 118 118 118 218 218 218 255 255 255 255 255 255 255 255 255 
