P3
12 16 
255 
255 255 255 255 255 255 255 255 255 255 255 255 255 255 255 255 255 255 255 255 255 255 255 255 255 255 255 255 255 255 255 255 255 255 255 255 
255 255 255 255 255 255 255 255 255 255 255 255 255 255 255 255 255 255 255 255 255 255 255 255 255 255 255 255 255 255 255 255 255 255 255 255 
255 255 255 255 255 255 255 255 255 255 255 255 255 255 255 255 255 255 255 255 255 255 255 255 255 255 255 255 255 255 255 255 255 255 255 255 
255 255 255 255 255 255 255 255 255 168 168 168 131 131 131 135 135 135 133 133 133 126 126 126 189 189 189 255 255 255 255 255 255 255 255 255 
255 255 255 255 255 255 135 135 135 199 199 199 255 255 255 255 255 255 255 255 255 255 255 255 174 174 174 164 164 164 255 255 255 255 255 255 
255 255 255 192 192 192 179 179 179 255 255 255 255 255 255 255 255 255 255 255 255 255 255 255 255 255 255 130 130 130 245 245 245 255 255 255 
255 255 255 132 132 132 255 255 255 255 255 255 255 255 255 255 255 255 255 255 255 255 255 255 255 255 255 215 215 215 211 211 211 255 255 255 
255 255 255 138 138 138 255 255 255 255 255 255 255 255 255 255 255 255 255 255 255 255 255 255 255 255 255 255 255 255 255 255 255 255 255 255 
255 255 255 136 136 136 255 255 255 255 255 255 255 255 255 255 255 255 255 255 255 255 255 255 255 255 255 255 255 255 255 255 255 255 255 255 
255 255 255 135 135 135 255 255 255 255 255 255 255 255 255 255 255 255 255 255 255 255 255 255 255 255 255 255 255 255 255 255 255 255 255 255 
255 255 255 135 135 135 255 255 255 255 255 255 255 255 255 253 253 253 127 127 127 127 127 127 127 127 127 120 120 120 183 183 183 255 255 255 
255 255 255 135 135 135 255 255 255 255 255 255 255 255 255 255 255 255 255 255 255 255 255 255 255 255 255 227 227 227 159 159 159 255 255 255 
255 255 255 130 130 130 254 254 254 255 255 255 255 255 255 255 255 255 255 255 255 255 255 255 255 255 255 227 227 227 159 159 159 255 255 255 
255 255 255 207 207 207 164 164 164 255 255 255 255 255 255 255 255 255 255 255 255 255 255 255 255 255 255 227 227 227 159 159 159 255 255 255 
255 255 255 255 255 255 151 151 151 181 181 181 255 255 255 255 255 255 255 255 255 255 255 255 251 251 251 145 145 145 193 193 193 255 255 255 
255 255 255 255 255 255 255 255 255 180 180 180 122 122 122 128 128 128 128 128 128 124 124 124 123 123 123 208 208 208 255 255 255 255 255 255 
