P3
13 16 
255 
255 255 255 255 255 255 255 255 255 255 255 255 255 255 255 255 255 255 255 255 255 255 255 255 255 255 255 255 255 255 255 255 255 255 255 255 255 255 255 
255 255 255 255 255 255 255 255 255 255 255 255 255 255 255 255 255 255 255 255 255 255 255 255 255 255 255 255 255 255 255 255 255 255 255 255 255 255 255 
255 255 255 255 255 255 255 255 255 255 255 255 255 255 255 255 255 255 255 255 255 255 255 255 255 255 255 255 255 255 255 255 255 255 255 255 255 255 255 
255 255 255 183 183 183 207 207 207 255 255 255 255 255 255 255 255 255 255 255 255 255 255 255 255 255 255 255 255 255 135 135 135 255 255 255 255 255 255 
255 255 255 183 183 183 207 207 207 255 255 255 255 255 255 255 255 255 255 255 255 255 255 255 255 255 255 255 255 255 135 135 135 255 255 255 255 255 255 
255 255 255 183 183 183 207 207 207 255 255 255 255 255 255 255 255 255 255 255 255 255 255 255 255 255 255 255 255 255 135 135 135 255 255 255 255 255 255 
255 255 255 183 183 183 207 207 207 255 255 255 255 255 255 255 255 255 255 255 255 255 255 255 255 255 255 255 255 255 135 135 135 255 255 255 255 255 255 
255 255 255 183 183 183 207 207 207 255 255 255 255 255 255 255 255 255 255 255 255 255 255 255 255 255 255 255 255 255 135 135 135 255 255 255 255 255 255 
255 255 255 183 183 183 207 207 207 255 255 255 255 255 255 255 255 255 255 255 255 255 255 255 255 255 255 255 255 255 135 135 135 255 255 255 255 255 255 
255 255 255 183 183 183 103 103 103 127 127 127 127 127 127 127 127 127 127 127 127 127 127 127 127 127 127 127 127 127 89 89 89 255 255 255 255 255 255 
255 255 255 183 183 183 207 207 207 255 255 255 255 255 255 255 255 255 255 255 255 255 255 255 255 255 255 255 255 255 135 135 135 255 255 255 255 255 255 
255 255 255 183 183 183 207 207 207 255 255 255 255 255 255 255 255 255 255 255 255 255 255 255 255 255 255 255 255 255 135 135 135 255 255 255 255 255 255 
255 255 255 183 183 183 207 207 207 255 255 255 255 255 255 255 255 255 255 255 255 255 255 255 255 255 255 255 255 255 135 135 135 255 255 255 255 255 255 
255 255 255 183 183 183 207 207 207 255 255 255 255 255 255 255 255 255 255 255 255 255 255 255 255 255 255 255 255 255 135 135 135 255 255 255 255 255 255 
255 255 255 183 183 183 207 207 207 255 255 255 255 255 255 255 255 255 255 255 255 255 255 255 255 255 255 255 255 255 135 135 135 255 255 255 255 255 255 
255 255 255 183 183 183 207 207 207 255 255 255 255 255 255 255 255 255 255 255 255 255 255 255 255 255 255 255 255 255 135 135 135 255 255 255 255 255 255 
