P3
4 16 
255 
255 255 255 255 255 255 255 255 255 255 255 255 
255 255 255 255 255 255 255 255 255 255 255 255 
255 255 255 255 255 255 255 255 255 255 255 255 
255 255 255 179 179 179 211 211 211 255 255 255 
255 255 255 179 179 179 211 211 211 255 255 255 
255 255 255 179 179 179 211 211 211 255 255 255 
255 255 255 179 179 179 211 211 211 255 255 255 
255 255 255 179 179 179 211 211 211 255 255 255 
255 255 255 179 179 179 211 211 211 255 255 255 
255 255 255 179 179 179 211 211 211 255 255 255 
255 255 255 179 179 179 211 211 211 255 255 255 
255 255 255 179 179 179 211 211 211 255 255 255 
255 255 255 179 179 179 211 211 211 255 255 255 
255 255 255 179 179 179 211 211 211 255 255 255 
255 255 255 179 179 179 211 211 211 255 255 255 
255 255 255 179 179 179 211 211 211 255 255 255 
