P3
10 16 
255 
255 255 255 255 255 255 255 255 255 255 255 255 255 255 255 255 255 255 255 255 255 255 255 255 255 255 255 255 255 255 
255 255 255 255 255 255 255 255 255 255 255 255 255 255 255 255 255 255 255 255 255 255 255 255 255 255 255 255 255 255 
255 255 255 255 255 255 255 255 255 255 255 255 255 255 255 255 255 255 255 255 255 255 255 255 255 255 255 255 255 255 
255 255 255 255 255 255 255 255 255 255 255 255 255 255 255 255 255 255 255 255 255 251 251 251 139 139 139 255 255 255 
255 255 255 255 255 255 255 255 255 255 255 255 255 255 255 255 255 255 255 255 255 251 251 251 139 139 139 255 255 255 
255 255 255 255 255 255 255 255 255 255 255 255 255 255 255 255 255 255 255 255 255 251 251 251 139 139 139 255 255 255 
255 255 255 255 255 255 255 255 255 255 255 255 255 255 255 255 255 255 255 255 255 251 251 251 139 139 139 255 255 255 
255 255 255 255 255 255 255 255 255 255 255 255 255 255 255 255 255 255 255 255 255 251 251 251 139 139 139 255 255 255 
255 255 255 255 255 255 255 255 255 255 255 255 255 255 255 255 255 255 255 255 255 251 251 251 139 139 139 255 255 255 
255 255 255 255 255 255 255 255 255 255 255 255 255 255 255 255 255 255 255 255 255 251 251 251 139 139 139 255 255 255 
255 255 255 255 255 255 255 255 255 255 255 255 255 255 255 255 255 255 255 255 255 251 251 251 139 139 139 255 255 255 
255 255 255 255 255 255 255 255 255 255 255 255 255 255 255 255 255 255 255 255 255 251 251 251 140 140 140 255 255 255 
255 255 255 168 168 168 255 255 255 255 255 255 255 255 255 255 255 255 255 255 255 229 229 229 152 152 152 255 255 255 
255 255 255 131 131 131 255 255 255 255 255 255 255 255 255 255 255 255 255 255 255 169 169 169 204 204 204 255 255 255 
255 255 255 179 179 179 179 179 179 255 255 255 255 255 255 255 255 255 227 227 227 108 108 108 255 255 255 255 255 255 
255 255 255 255 255 255 171 171 171 124 124 124 127 127 127 114 114 114 122 122 122 244 244 244 255 255 255 255 255 255 
