P3
12 16 
255 
255 255 255 255 255 255 255 255 255 255 255 255 255 255 255 255 255 255 255 255 255 255 255 255 255 255 255 255 255 255 255 255 255 255 255 255 
255 255 255 255 255 255 255 255 255 255 255 255 255 255 255 255 255 255 255 255 255 255 255 255 255 255 255 255 255 255 255 255 255 255 255 255 
255 255 255 255 255 255 255 255 255 255 255 255 255 255 255 255 255 255 255 255 255 255 255 255 255 255 255 255 255 255 255 255 255 255 255 255 
255 255 255 239 239 239 151 151 151 255 255 255 255 255 255 255 255 255 255 255 255 255 255 255 253 253 253 117 117 117 221 221 221 255 255 255 
255 255 255 239 239 239 151 151 151 255 255 255 255 255 255 255 255 255 255 255 255 253 253 253 120 120 120 218 218 218 255 255 255 255 255 255 
255 255 255 239 239 239 151 151 151 255 255 255 255 255 255 255 255 255 254 254 254 122 122 122 216 216 216 255 255 255 255 255 255 255 255 255 
255 255 255 239 239 239 151 151 151 255 255 255 255 255 255 254 254 254 125 125 125 213 213 213 255 255 255 255 255 255 255 255 255 255 255 255 
255 255 255 239 239 239 151 151 151 255 255 255 255 255 255 127 127 127 210 210 210 255 255 255 255 255 255 255 255 255 255 255 255 255 255 255 
255 255 255 239 239 239 151 151 151 255 255 255 122 122 122 207 207 207 255 255 255 255 255 255 255 255 255 255 255 255 255 255 255 255 255 255 
255 255 255 239 239 239 151 151 151 136 136 136 154 154 154 166 166 166 255 255 255 255 255 255 255 255 255 255 255 255 255 255 255 255 255 255 
255 255 255 239 239 239 66 66 66 220 220 220 255 255 255 165 165 165 191 191 191 255 255 255 255 255 255 255 255 255 255 255 255 255 255 255 
255 255 255 239 239 239 151 151 151 255 255 255 255 255 255 255 255 255 140 140 140 215 215 215 255 255 255 255 255 255 255 255 255 255 255 255 
255 255 255 239 239 239 151 151 151 255 255 255 255 255 255 255 255 255 254 254 254 121 121 121 234 234 234 255 255 255 255 255 255 255 255 255 
255 255 255 239 239 239 151 151 151 255 255 255 255 255 255 255 255 255 255 255 255 247 247 247 115 115 115 247 247 247 255 255 255 255 255 255 
255 255 255 239 239 239 151 151 151 255 255 255 255 255 255 255 255 255 255 255 255 255 255 255 233 233 233 120 120 120 254 254 254 255 255 255 
255 255 255 239 239 239 151 151 151 255 255 255 255 255 255 255 255 255 255 255 255 255 255 255 255 255 255 214 214 214 138 138 138 255 255 255 
