P3
16 16 
255 
255 255 255 255 255 255 255 255 255 255 255 255 255 255 255 255 255 255 255 255 255 255 255 255 255 255 255 255 255 255 255 255 255 255 255 255 255 255 255 255 255 255 255 255 255 255 255 255 
255 255 255 255 255 255 255 255 255 255 255 255 255 255 255 255 255 255 255 255 255 255 255 255 255 255 255 255 255 255 255 255 255 255 255 255 255 255 255 255 255 255 255 255 255 255 255 255 
255 255 255 255 255 255 255 255 255 255 255 255 255 255 255 255 255 255 255 255 255 255 255 255 255 255 255 255 255 255 255 255 255 255 255 255 255 255 255 255 255 255 255 255 255 255 255 255 
255 255 255 167 167 167 120 120 120 255 255 255 255 255 255 255 255 255 255 255 255 255 255 255 255 255 255 255 255 255 255 255 255 255 255 255 168 168 168 116 116 116 255 255 255 255 255 255 
255 255 255 167 167 167 96 96 96 245 245 245 255 255 255 255 255 255 255 255 255 255 255 255 255 255 255 255 255 255 255 255 255 255 255 255 121 121 121 135 135 135 255 255 255 255 255 255 
255 255 255 167 167 167 187 187 187 156 156 156 255 255 255 255 255 255 255 255 255 255 255 255 255 255 255 255 255 255 255 255 255 205 205 205 173 173 173 135 135 135 255 255 255 255 255 255 
255 255 255 167 167 167 223 223 223 121 121 121 255 255 255 255 255 255 255 255 255 255 255 255 255 255 255 255 255 255 255 255 255 126 126 126 252 252 252 135 135 135 255 255 255 255 255 255 
255 255 255 167 167 167 223 223 223 186 186 186 190 190 190 255 255 255 255 255 255 255 255 255 255 255 255 255 255 255 233 233 233 146 146 146 255 255 255 135 135 135 255 255 255 255 255 255 
255 255 255 167 167 167 223 223 223 255 255 255 124 124 124 255 255 255 255 255 255 255 255 255 255 255 255 255 255 255 141 141 141 238 238 238 255 255 255 135 135 135 255 255 255 255 255 255 
255 255 255 167 167 167 223 223 223 255 255 255 155 155 155 224 224 224 255 255 255 255 255 255 255 255 255 250 250 250 130 130 130 255 255 255 255 255 255 135 135 135 255 255 255 255 255 255 
255 255 255 167 167 167 223 223 223 255 255 255 245 245 245 136 136 136 255 255 255 255 255 255 255 255 255 167 167 167 214 214 214 255 255 255 255 255 255 135 135 135 255 255 255 255 255 255 
255 255 255 167 167 167 223 223 223 255 255 255 255 255 255 135 135 135 246 246 246 255 255 255 255 255 255 127 127 127 255 255 255 255 255 255 255 255 255 135 135 135 255 255 255 255 255 255 
255 255 255 167 167 167 223 223 223 255 255 255 255 255 255 224 224 224 158 158 158 255 255 255 203 203 203 181 181 181 255 255 255 255 255 255 255 255 255 135 135 135 255 255 255 255 255 255 
255 255 255 167 167 167 223 223 223 255 255 255 255 255 255 255 255 255 128 128 128 255 255 255 130 130 130 254 254 254 255 255 255 255 255 255 255 255 255 135 135 135 255 255 255 255 255 255 
255 255 255 167 167 167 223 223 223 255 255 255 255 255 255 255 255 255 193 193 193 168 168 168 153 153 153 255 255 255 255 255 255 255 255 255 255 255 255 135 135 135 255 255 255 255 255 255 
255 255 255 167 167 167 223 223 223 255 255 255 255 255 255 255 255 255 255 255 255 72 72 72 242 242 242 255 255 255 255 255 255 255 255 255 255 255 255 135 135 135 255 255 255 255 255 255 
