P3
12 16 
255 
255 255 255 255 255 255 255 255 255 255 255 255 255 255 255 255 255 255 255 255 255 255 255 255 255 255 255 255 255 255 255 255 255 255 255 255 
255 255 255 255 255 255 255 255 255 255 255 255 255 255 255 255 255 255 255 255 255 255 255 255 255 255 255 255 255 255 255 255 255 255 255 255 
255 255 255 255 255 255 255 255 255 255 255 255 255 255 255 255 255 255 255 255 255 255 255 255 255 255 255 255 255 255 255 255 255 255 255 255 
255 255 255 62 62 62 244 244 244 255 255 255 255 255 255 255 255 255 255 255 255 255 255 255 255 255 255 211 211 211 175 175 175 255 255 255 
255 255 255 116 116 116 130 130 130 255 255 255 255 255 255 255 255 255 255 255 255 255 255 255 255 255 255 211 211 211 175 175 175 255 255 255 
255 255 255 135 135 135 179 179 179 188 188 188 255 255 255 255 255 255 255 255 255 255 255 255 255 255 255 211 211 211 175 175 175 255 255 255 
255 255 255 135 135 135 255 255 255 125 125 125 241 241 241 255 255 255 255 255 255 255 255 255 255 255 255 211 211 211 175 175 175 255 255 255 
255 255 255 135 135 135 255 255 255 240 240 240 126 126 126 255 255 255 255 255 255 255 255 255 255 255 255 211 211 211 175 175 175 255 255 255 
255 255 255 135 135 135 255 255 255 255 255 255 187 187 187 179 179 179 255 255 255 255 255 255 255 255 255 211 211 211 175 175 175 255 255 255 
255 255 255 135 135 135 255 255 255 255 255 255 255 255 255 129 129 129 236 236 236 255 255 255 255 255 255 211 211 211 175 175 175 255 255 255 
255 255 255 135 135 135 255 255 255 255 255 255 255 255 255 244 244 244 122 122 122 255 255 255 255 255 255 211 211 211 175 175 175 255 255 255 
255 255 255 135 135 135 255 255 255 255 255 255 255 255 255 255 255 255 194 194 194 171 171 171 255 255 255 211 211 211 175 175 175 255 255 255 
255 255 255 135 135 135 255 255 255 255 255 255 255 255 255 255 255 255 255 255 255 134 134 134 231 231 231 211 211 211 175 175 175 255 255 255 
255 255 255 135 135 135 255 255 255 255 255 255 255 255 255 255 255 255 255 255 255 247 247 247 118 118 118 211 211 211 175 175 175 255 255 255 
255 255 255 135 135 135 255 255 255 255 255 255 255 255 255 255 255 255 255 255 255 255 255 255 202 202 202 119 119 119 175 175 175 255 255 255 
255 255 255 135 135 135 255 255 255 255 255 255 255 255 255 255 255 255 255 255 255 255 255 255 255 255 255 127 127 127 175 175 175 255 255 255 
