P3
12 16 
255 
255 255 255 255 255 255 255 255 255 255 255 255 255 255 255 255 255 255 255 255 255 255 255 255 255 255 255 255 255 255 255 255 255 255 255 255 
255 255 255 255 255 255 255 255 255 255 255 255 255 255 255 255 255 255 255 255 255 255 255 255 255 255 255 255 255 255 255 255 255 255 255 255 
255 255 255 255 255 255 255 255 255 255 255 255 255 255 255 255 255 255 255 255 255 255 255 255 255 255 255 255 255 255 255 255 255 255 255 255 
255 255 255 255 255 255 255 255 255 189 189 189 129 129 129 136 136 136 136 136 136 130 130 130 177 177 177 255 255 255 255 255 255 255 255 255 
255 255 255 255 255 255 166 166 166 174 174 174 255 255 255 255 255 255 255 255 255 255 255 255 189 189 189 149 149 149 255 255 255 255 255 255 
255 255 255 229 229 229 147 147 147 255 255 255 255 255 255 255 255 255 255 255 255 255 255 255 255 255 255 166 166 166 210 210 210 255 255 255 
255 255 255 146 146 146 242 242 242 255 255 255 255 255 255 255 255 255 255 255 255 255 255 255 255 255 255 253 253 253 139 139 139 255 255 255 
255 255 255 135 135 135 255 255 255 255 255 255 255 255 255 255 255 255 255 255 255 255 255 255 255 255 255 255 255 255 139 139 139 255 255 255 
255 255 255 132 132 132 255 255 255 255 255 255 255 255 255 255 255 255 255 255 255 255 255 255 255 255 255 255 255 255 137 137 137 255 255 255 
255 255 255 131 131 131 255 255 255 255 255 255 255 255 255 255 255 255 255 255 255 255 255 255 255 255 255 255 255 255 135 135 135 255 255 255 
255 255 255 131 131 131 255 255 255 255 255 255 255 255 255 255 255 255 255 255 255 255 255 255 255 255 255 255 255 255 136 136 136 255 255 255 
255 255 255 128 128 128 255 255 255 255 255 255 255 255 255 255 255 255 255 255 255 255 255 255 255 255 255 255 255 255 137 137 137 255 255 255 
255 255 255 140 140 140 237 237 237 255 255 255 255 255 255 255 255 255 255 255 255 255 255 255 255 255 255 253 253 253 138 138 138 255 255 255 
255 255 255 228 228 228 137 137 137 255 255 255 255 255 255 255 255 255 255 255 255 255 255 255 255 255 255 167 167 167 210 210 210 255 255 255 
255 255 255 255 255 255 164 164 164 167 167 167 255 255 255 255 255 255 255 255 255 255 255 255 191 191 191 149 149 149 255 255 255 255 255 255 
255 255 255 255 255 255 255 255 255 188 188 188 117 117 117 123 123 123 132 132 132 127 127 127 175 175 175 255 255 255 255 255 255 255 255 255 
