P3
11 16 
255 
255 255 255 255 255 255 255 255 255 255 255 255 255 255 255 255 255 255 255 255 255 255 255 255 255 255 255 255 255 255 255 255 255 
255 255 255 255 255 255 255 255 255 255 255 255 255 255 255 255 255 255 255 255 255 255 255 255 255 255 255 255 255 255 255 255 255 
255 255 255 255 255 255 255 255 255 255 255 255 255 255 255 255 255 255 255 255 255 255 255 255 255 255 255 255 255 255 255 255 255 
255 255 255 207 207 207 94 94 94 131 131 131 131 131 131 131 131 131 119 119 119 114 114 114 196 196 196 255 255 255 255 255 255 
255 255 255 207 207 207 183 183 183 255 255 255 255 255 255 255 255 255 255 255 255 253 253 253 129 129 129 196 196 196 255 255 255 
255 255 255 207 207 207 183 183 183 255 255 255 255 255 255 255 255 255 255 255 255 255 255 255 253 253 253 114 114 114 255 255 255 
255 255 255 207 207 207 183 183 183 255 255 255 255 255 255 255 255 255 255 255 255 255 255 255 255 255 255 121 121 121 255 255 255 
255 255 255 207 207 207 183 183 183 255 255 255 255 255 255 255 255 255 255 255 255 255 255 255 255 255 255 119 119 119 255 255 255 
255 255 255 207 207 207 183 183 183 255 255 255 255 255 255 255 255 255 255 255 255 255 255 255 244 244 244 118 118 118 255 255 255 
255 255 255 207 207 207 183 183 183 255 255 255 255 255 255 255 255 255 255 255 255 231 231 231 105 105 105 220 220 220 255 255 255 
255 255 255 207 207 207 97 97 97 135 135 135 135 135 135 135 135 135 134 134 134 144 144 144 242 242 242 255 255 255 255 255 255 
255 255 255 207 207 207 183 183 183 255 255 255 255 255 255 255 255 255 255 255 255 255 255 255 255 255 255 255 255 255 255 255 255 
255 255 255 207 207 207 183 183 183 255 255 255 255 255 255 255 255 255 255 255 255 255 255 255 255 255 255 255 255 255 255 255 255 
255 255 255 207 207 207 183 183 183 255 255 255 255 255 255 255 255 255 255 255 255 255 255 255 255 255 255 255 255 255 255 255 255 
255 255 255 207 207 207 183 183 183 255 255 255 255 255 255 255 255 255 255 255 255 255 255 255 255 255 255 255 255 255 255 255 255 
255 255 255 207 207 207 183 183 183 255 255 255 255 255 255 255 255 255 255 255 255 255 255 255 255 255 255 255 255 255 255 255 255 
