P3
12 16 
255 
255 255 255 255 255 255 255 255 255 255 255 255 255 255 255 255 255 255 255 255 255 255 255 255 255 255 255 255 255 255 255 255 255 255 255 255 
255 255 255 255 255 255 255 255 255 255 255 255 255 255 255 255 255 255 255 255 255 255 255 255 255 255 255 255 255 255 255 255 255 255 255 255 
255 255 255 255 255 255 255 255 255 255 255 255 255 255 255 255 255 255 255 255 255 255 255 255 255 255 255 255 255 255 255 255 255 255 255 255 
255 255 255 255 255 255 255 255 255 164 164 164 131 131 131 135 135 135 136 136 136 129 129 129 203 203 203 255 255 255 255 255 255 255 255 255 
255 255 255 255 255 255 134 134 134 206 206 206 255 255 255 255 255 255 255 255 255 255 255 255 157 157 157 181 181 181 255 255 255 255 255 255 
255 255 255 189 189 189 187 187 187 255 255 255 255 255 255 255 255 255 255 255 255 255 255 255 255 255 255 132 132 132 242 242 242 255 255 255 
255 255 255 132 132 132 255 255 255 255 255 255 255 255 255 255 255 255 255 255 255 255 255 255 255 255 255 227 227 227 164 164 164 255 255 255 
255 255 255 135 135 135 255 255 255 255 255 255 255 255 255 255 255 255 255 255 255 255 255 255 255 255 255 255 255 255 139 139 139 255 255 255 
255 255 255 132 132 132 255 255 255 255 255 255 255 255 255 255 255 255 255 255 255 255 255 255 255 255 255 255 255 255 137 137 137 255 255 255 
255 255 255 131 131 131 255 255 255 255 255 255 255 255 255 255 255 255 255 255 255 255 255 255 255 255 255 255 255 255 135 135 135 255 255 255 
255 255 255 131 131 131 255 255 255 255 255 255 255 255 255 255 255 255 255 255 255 255 255 255 255 255 255 255 255 255 137 137 137 255 255 255 
255 255 255 128 128 128 255 255 255 255 255 255 255 255 255 255 255 255 255 255 255 255 255 255 255 255 255 255 255 255 141 141 141 255 255 255 
255 255 255 122 122 122 255 255 255 255 255 255 255 255 255 255 255 255 255 255 255 255 255 255 255 255 255 226 226 226 167 167 167 255 255 255 
255 255 255 185 185 185 180 180 180 255 255 255 255 255 255 255 255 255 255 255 255 255 255 255 255 255 255 135 135 135 246 246 246 255 255 255 
255 255 255 255 255 255 130 130 130 201 201 201 255 255 255 255 255 255 255 255 255 255 255 255 160 160 160 187 187 187 255 255 255 255 255 255 
255 255 255 255 255 255 255 255 255 159 159 159 120 120 120 124 124 124 128 128 128 85 85 85 182 182 182 255 255 255 255 255 255 255 255 255 
