P3
11 16 
255 
255 255 255 255 255 255 255 255 255 255 255 255 255 255 255 255 255 255 255 255 255 255 255 255 255 255 255 255 255 255 255 255 255 
255 255 255 255 255 255 255 255 255 255 255 255 255 255 255 255 255 255 255 255 255 255 255 255 255 255 255 255 255 255 255 255 255 
255 255 255 255 255 255 255 255 255 255 255 255 255 255 255 255 255 255 255 255 255 255 255 255 255 255 255 255 255 255 255 255 255 
255 255 255 143 143 143 127 127 127 131 131 131 131 131 131 130 130 130 117 117 117 116 116 116 217 217 217 255 255 255 255 255 255 
255 255 255 143 143 143 247 247 247 255 255 255 255 255 255 255 255 255 255 255 255 246 246 246 117 117 117 220 220 220 255 255 255 
255 255 255 143 143 143 247 247 247 255 255 255 255 255 255 255 255 255 255 255 255 255 255 255 249 249 249 125 125 125 255 255 255 
255 255 255 143 143 143 247 247 247 255 255 255 255 255 255 255 255 255 255 255 255 255 255 255 255 255 255 130 130 130 255 255 255 
255 255 255 143 143 143 247 247 247 255 255 255 255 255 255 255 255 255 255 255 255 255 255 255 255 255 255 129 129 129 255 255 255 
255 255 255 143 143 143 247 247 247 255 255 255 255 255 255 255 255 255 255 255 255 255 255 255 230 230 230 148 148 148 255 255 255 
255 255 255 143 143 143 247 247 247 255 255 255 255 255 255 255 255 255 255 255 255 228 228 228 120 120 120 245 245 245 255 255 255 
255 255 255 143 143 143 131 131 131 135 135 135 135 135 135 135 135 135 86 86 86 152 152 152 247 247 247 255 255 255 255 255 255 
255 255 255 143 143 143 247 247 247 255 255 255 255 255 255 255 255 255 230 230 230 136 136 136 255 255 255 255 255 255 255 255 255 
255 255 255 143 143 143 247 247 247 255 255 255 255 255 255 255 255 255 255 255 255 160 160 160 205 205 205 255 255 255 255 255 255 
255 255 255 143 143 143 247 247 247 255 255 255 255 255 255 255 255 255 255 255 255 255 255 255 114 114 114 251 251 251 255 255 255 
255 255 255 143 143 143 247 247 247 255 255 255 255 255 255 255 255 255 255 255 255 255 255 255 220 220 220 143 143 143 255 255 255 
255 255 255 143 143 143 247 247 247 255 255 255 255 255 255 255 255 255 255 255 255 255 255 255 255 255 255 148 148 148 216 216 216 
