P3
15 16 
255 
255 255 255 255 255 255 255 255 255 255 255 255 255 255 255 255 255 255 255 255 255 255 255 255 255 255 255 255 255 255 255 255 255 255 255 255 255 255 255 255 255 255 255 255 255 
255 255 255 255 255 255 255 255 255 255 255 255 255 255 255 255 255 255 255 255 255 255 255 255 255 255 255 255 255 255 255 255 255 255 255 255 255 255 255 255 255 255 255 255 255 
255 255 255 255 255 255 255 255 255 255 255 255 255 255 255 255 255 255 255 255 255 255 255 255 255 255 255 255 255 255 255 255 255 255 255 255 255 255 255 255 255 255 255 255 255 
255 255 255 255 255 255 254 254 254 166 166 166 124 124 124 132 132 132 127 127 127 123 123 123 154 154 154 254 254 254 255 255 255 224 224 224 131 131 131 131 131 131 131 131 131 
255 255 255 255 255 255 128 128 128 200 200 200 255 255 255 255 255 255 255 255 255 255 255 255 201 201 201 131 131 131 255 255 255 255 255 255 255 255 255 255 255 255 255 255 255 
255 255 255 242 242 242 138 138 138 255 255 255 255 255 255 255 255 255 255 255 255 255 255 255 255 255 255 166 166 166 218 218 218 255 255 255 255 255 255 255 255 255 255 255 255 
255 255 255 237 237 237 140 140 140 255 255 255 255 255 255 255 255 255 255 255 255 255 255 255 255 255 255 233 233 233 190 190 190 255 255 255 255 255 255 255 255 255 255 255 255 
255 255 255 255 255 255 110 110 110 238 238 238 255 255 255 255 255 255 255 255 255 255 255 255 255 255 255 255 255 255 255 255 255 255 255 255 255 255 255 255 255 255 255 255 255 
255 255 255 255 255 255 240 240 240 127 127 127 153 153 153 236 236 236 255 255 255 255 255 255 255 255 255 255 255 255 255 255 255 255 255 255 255 255 255 255 255 255 255 255 255 
255 255 255 255 255 255 255 255 255 255 255 255 232 232 232 156 156 156 132 132 132 145 145 145 232 232 232 255 255 255 255 255 255 255 255 255 255 255 255 255 255 255 255 255 255 
255 255 255 255 255 255 255 255 255 255 255 255 255 255 255 255 255 255 255 255 255 240 240 240 143 143 143 159 159 159 255 255 255 255 255 255 255 255 255 255 255 255 255 255 255 
255 255 255 255 255 255 255 255 255 255 255 255 255 255 255 255 255 255 255 255 255 255 255 255 255 255 255 170 170 170 199 199 199 255 255 255 255 255 255 255 255 255 255 255 255 
255 255 255 166 166 166 255 255 255 255 255 255 255 255 255 255 255 255 255 255 255 255 255 255 255 255 255 253 253 253 133 133 133 255 255 255 255 255 255 255 255 255 255 255 255 
255 255 255 180 180 180 200 200 200 255 255 255 255 255 255 255 255 255 255 255 255 255 255 255 255 255 255 229 229 229 153 153 153 255 255 255 255 255 255 255 255 255 255 255 255 
255 255 255 253 253 253 112 112 112 209 209 209 255 255 255 255 255 255 255 255 255 255 255 255 235 235 235 108 108 108 243 243 243 255 255 255 255 255 255 255 255 255 255 255 255 
255 255 255 255 255 255 250 250 250 148 148 148 120 120 120 120 120 120 124 124 124 122 122 122 128 128 128 237 237 237 255 255 255 255 255 255 255 255 255 255 255 255 255 255 255 
