P3
11 16 
255 
255 255 255 255 255 255 255 255 255 255 255 255 255 255 255 255 255 255 255 255 255 255 255 255 255 255 255 255 255 255 255 255 255 
255 255 255 255 255 255 255 255 255 255 255 255 255 255 255 255 255 255 255 255 255 255 255 255 255 255 255 255 255 255 255 255 255 
255 255 255 255 255 255 255 255 255 255 255 255 255 255 255 255 255 255 255 255 255 255 255 255 255 255 255 255 255 255 255 255 255 
255 255 255 167 167 167 223 223 223 255 255 255 255 255 255 255 255 255 255 255 255 255 255 255 255 255 255 235 235 235 151 151 151 
255 255 255 167 167 167 223 223 223 255 255 255 255 255 255 255 255 255 255 255 255 255 255 255 255 255 255 235 235 235 151 151 151 
255 255 255 167 167 167 223 223 223 255 255 255 255 255 255 255 255 255 255 255 255 255 255 255 255 255 255 235 235 235 151 151 151 
255 255 255 167 167 167 223 223 223 255 255 255 255 255 255 255 255 255 255 255 255 255 255 255 255 255 255 235 235 235 151 151 151 
255 255 255 167 167 167 223 223 223 255 255 255 255 255 255 255 255 255 255 255 255 255 255 255 255 255 255 235 235 235 151 151 151 
255 255 255 167 167 167 223 223 223 255 255 255 255 255 255 255 255 255 255 255 255 255 255 255 255 255 255 235 235 235 151 151 151 
255 255 255 167 167 167 223 223 223 255 255 255 255 255 255 255 255 255 255 255 255 255 255 255 255 255 255 235 235 235 151 151 151 
255 255 255 167 167 167 223 223 223 255 255 255 255 255 255 255 255 255 255 255 255 255 255 255 255 255 255 235 235 235 151 151 151 
255 255 255 168 168 168 222 222 222 255 255 255 255 255 255 255 255 255 255 255 255 255 255 255 255 255 255 234 234 234 153 153 153 
255 255 255 187 187 187 201 201 201 255 255 255 255 255 255 255 255 255 255 255 255 255 255 255 255 255 255 212 212 212 171 171 171 
255 255 255 242 242 242 132 132 132 255 255 255 255 255 255 255 255 255 255 255 255 255 255 255 255 255 255 138 138 138 231 231 231 
255 255 255 255 255 255 149 149 149 178 178 178 255 255 255 255 255 255 255 255 255 255 255 255 187 187 187 137 137 137 255 255 255 
255 255 255 255 255 255 255 255 255 170 170 170 117 117 117 127 127 127 127 127 127 118 118 118 162 162 162 255 255 255 255 255 255 
