P3
11 16 
255 
255 255 255 255 255 255 255 255 255 255 255 255 255 255 255 255 255 255 255 255 255 255 255 255 255 255 255 255 255 255 255 255 255 
255 255 255 255 255 255 255 255 255 255 255 255 255 255 255 255 255 255 255 255 255 255 255 255 255 255 255 255 255 255 255 255 255 
255 255 255 255 255 255 255 255 255 255 255 255 255 255 255 255 255 255 255 255 255 255 255 255 255 255 255 255 255 255 255 255 255 
255 255 255 141 141 141 238 238 238 255 255 255 255 255 255 255 255 255 255 255 255 255 255 255 255 255 255 255 255 255 200 200 200 
255 255 255 226 226 226 154 154 154 255 255 255 255 255 255 255 255 255 255 255 255 255 255 255 255 255 255 255 255 255 129 129 129 
255 255 255 255 255 255 124 124 124 255 255 255 255 255 255 255 255 255 255 255 255 255 255 255 255 255 255 250 250 250 131 131 131 
255 255 255 255 255 255 161 161 161 219 219 219 255 255 255 255 255 255 255 255 255 255 255 255 255 255 255 175 175 175 205 205 205 
255 255 255 255 255 255 243 243 243 138 138 138 255 255 255 255 255 255 255 255 255 255 255 255 255 255 255 125 125 125 255 255 255 
255 255 255 255 255 255 255 255 255 126 126 126 254 254 254 255 255 255 255 255 255 255 255 255 237 237 237 144 144 144 255 255 255 
255 255 255 255 255 255 255 255 255 187 187 187 194 194 194 255 255 255 255 255 255 255 255 255 152 152 152 229 229 229 255 255 255 
255 255 255 255 255 255 255 255 255 253 253 253 129 129 129 255 255 255 255 255 255 255 255 255 127 127 127 255 255 255 255 255 255 
255 255 255 255 255 255 255 255 255 255 255 255 135 135 135 247 247 247 255 255 255 218 218 218 165 165 165 255 255 255 255 255 255 
255 255 255 255 255 255 255 255 255 255 255 255 214 214 214 170 170 170 255 255 255 138 138 138 245 245 245 255 255 255 255 255 255 
255 255 255 255 255 255 255 255 255 255 255 255 255 255 255 127 127 127 254 254 254 129 129 129 255 255 255 255 255 255 255 255 255 
255 255 255 255 255 255 255 255 255 255 255 255 255 255 255 150 150 150 171 171 171 190 190 190 255 255 255 255 255 255 255 255 255 
255 255 255 255 255 255 255 255 255 255 255 255 255 255 255 235 235 235 58 58 58 254 254 254 255 255 255 255 255 255 255 255 255 
