P3
17 16 
255 
255 255 255 255 255 255 255 255 255 255 255 255 255 255 255 255 255 255 255 255 255 255 255 255 255 255 255 255 255 255 255 255 255 255 255 255 255 255 255 255 255 255 255 255 255 255 255 255 255 255 255 
255 255 255 255 255 255 255 255 255 255 255 255 255 255 255 255 255 255 255 255 255 255 255 255 255 255 255 255 255 255 255 255 255 255 255 255 255 255 255 255 255 255 255 255 255 255 255 255 255 255 255 
255 255 255 255 255 255 255 255 255 255 255 255 255 255 255 255 255 255 255 255 255 255 255 255 255 255 255 255 255 255 255 255 255 255 255 255 255 255 255 255 255 255 255 255 255 255 255 255 255 255 255 
179 179 179 125 125 125 250 250 250 255 255 255 255 255 255 255 255 255 255 255 255 255 255 255 140 140 140 166 166 166 255 255 255 255 255 255 255 255 255 255 255 255 255 255 255 226 226 226 151 151 151 
251 251 251 180 180 180 196 196 196 255 255 255 255 255 255 255 255 255 255 255 255 255 255 255 135 135 135 133 133 133 255 255 255 255 255 255 255 255 255 255 255 255 255 255 255 159 159 159 218 218 218 
255 255 255 243 243 243 135 135 135 255 255 255 255 255 255 255 255 255 255 255 255 237 237 237 157 157 157 142 142 142 251 251 251 255 255 255 255 255 255 255 255 255 255 255 255 122 122 122 255 255 255 
255 255 255 255 255 255 124 124 124 255 255 255 255 255 255 255 255 255 255 255 255 165 165 165 228 228 228 200 200 200 191 191 191 255 255 255 255 255 255 255 255 255 255 255 255 125 125 125 255 255 255 
255 255 255 255 255 255 135 135 135 245 245 245 255 255 255 255 255 255 255 255 255 137 137 137 255 255 255 253 253 253 135 135 135 255 255 255 255 255 255 255 255 255 214 214 214 166 166 166 255 255 255 
255 255 255 255 255 255 196 196 196 185 185 185 255 255 255 255 255 255 252 252 252 141 141 141 255 255 255 255 255 255 131 131 131 255 255 255 255 255 255 255 255 255 148 148 148 233 233 233 255 255 255 
255 255 255 255 255 255 251 251 251 133 133 133 255 255 255 255 255 255 192 192 192 199 199 199 255 255 255 255 255 255 168 168 168 216 216 216 255 255 255 255 255 255 127 127 127 255 255 255 255 255 255 
255 255 255 255 255 255 255 255 255 129 129 129 255 255 255 255 255 255 137 137 137 253 253 253 255 255 255 255 255 255 239 239 239 144 144 144 255 255 255 253 253 253 131 131 131 255 255 255 255 255 255 
255 255 255 255 255 255 255 255 255 147 147 147 239 239 239 255 255 255 134 134 134 255 255 255 255 255 255 255 255 255 255 255 255 125 125 125 255 255 255 202 202 202 182 182 182 255 255 255 255 255 255 
255 255 255 255 255 255 255 255 255 212 212 212 175 175 175 221 221 221 169 169 169 255 255 255 255 255 255 255 255 255 255 255 255 141 141 141 238 238 238 142 142 142 244 244 244 255 255 255 255 255 255 
255 255 255 255 255 255 255 255 255 255 255 255 134 134 134 152 152 152 239 239 239 255 255 255 255 255 255 255 255 255 255 255 255 212 212 212 170 170 170 130 130 130 255 255 255 255 255 255 255 255 255 
255 255 255 255 255 255 255 255 255 255 255 255 133 133 133 143 143 143 255 255 255 255 255 255 255 255 255 255 255 255 255 255 255 255 255 255 123 123 123 137 137 137 255 255 255 255 255 255 255 255 255 
255 255 255 255 255 255 255 255 255 255 255 255 161 161 161 148 148 148 255 255 255 255 255 255 255 255 255 255 255 255 255 255 255 255 255 255 109 109 109 198 198 198 255 255 255 255 255 255 255 255 255 
