P3
10 16 
255 
255 255 255 255 255 255 255 255 255 255 255 255 255 255 255 255 255 255 255 255 255 255 255 255 255 255 255 255 255 255 
255 255 255 255 255 255 255 255 255 255 255 255 255 255 255 255 255 255 255 255 255 255 255 255 255 255 255 255 255 255 
255 255 255 255 255 255 255 255 255 255 255 255 255 255 255 255 255 255 255 255 255 255 255 255 255 255 255 255 255 255 
241 241 241 120 120 120 255 255 255 255 255 255 255 255 255 255 255 255 255 255 255 255 255 255 254 254 254 113 113 113 
255 255 255 193 193 193 173 173 173 255 255 255 255 255 255 255 255 255 255 255 255 255 255 255 151 151 151 214 214 214 
255 255 255 255 255 255 138 138 138 232 232 232 255 255 255 255 255 255 255 255 255 216 216 216 155 155 155 255 255 255 
255 255 255 255 255 255 249 249 249 125 125 125 255 255 255 255 255 255 252 252 252 123 123 123 254 254 254 255 255 255 
255 255 255 255 255 255 255 255 255 211 211 211 167 167 167 255 255 255 151 151 151 228 228 228 255 255 255 255 255 255 
255 255 255 255 255 255 255 255 255 255 255 255 157 157 157 179 179 179 173 173 173 255 255 255 255 255 255 255 255 255 
255 255 255 255 255 255 255 255 255 255 255 255 238 238 238 45 45 45 249 249 249 255 255 255 255 255 255 255 255 255 
255 255 255 255 255 255 255 255 255 255 255 255 125 125 125 217 217 217 137 137 137 255 255 255 255 255 255 255 255 255 
255 255 255 255 255 255 255 255 255 173 173 173 193 193 193 255 255 255 172 172 172 194 194 194 255 255 255 255 255 255 
255 255 255 255 255 255 230 230 230 136 136 136 255 255 255 255 255 255 255 255 255 122 122 122 242 242 242 255 255 255 
255 255 255 255 255 255 118 118 118 248 248 248 255 255 255 255 255 255 255 255 255 238 238 238 125 125 125 255 255 255 
255 255 255 156 156 156 208 208 208 255 255 255 255 255 255 255 255 255 255 255 255 255 255 255 183 183 183 178 178 178 
218 218 218 146 146 146 255 255 255 255 255 255 255 255 255 255 255 255 255 255 255 255 255 255 255 255 255 126 126 126 
