P3
11 16 
255 
255 255 255 255 255 255 255 255 255 255 255 255 255 255 255 255 255 255 255 255 255 255 255 255 255 255 255 255 255 255 255 255 255 
255 255 255 255 255 255 255 255 255 255 255 255 255 255 255 255 255 255 255 255 255 255 255 255 255 255 255 255 255 255 255 255 255 
255 255 255 255 255 255 255 255 255 255 255 255 255 255 255 255 255 255 255 255 255 255 255 255 255 255 255 255 255 255 255 255 255 
250 250 250 121 121 121 232 232 232 255 255 255 255 255 255 255 255 255 255 255 255 255 255 255 255 255 255 255 255 255 119 119 119 
255 255 255 239 239 239 122 122 122 255 255 255 255 255 255 255 255 255 255 255 255 255 255 255 255 255 255 200 200 200 167 167 167 
255 255 255 255 255 255 159 159 159 206 206 206 255 255 255 255 255 255 255 255 255 255 255 255 254 254 254 119 119 119 255 255 255 
255 255 255 255 255 255 254 254 254 118 118 118 255 255 255 255 255 255 255 255 255 255 255 255 166 166 166 212 212 212 255 255 255 
255 255 255 255 255 255 255 255 255 204 204 204 174 174 174 255 255 255 255 255 255 243 243 243 140 140 140 255 255 255 255 255 255 
255 255 255 255 255 255 255 255 255 255 255 255 136 136 136 247 247 247 255 255 255 147 147 147 242 242 242 255 255 255 255 255 255 
255 255 255 255 255 255 255 255 255 255 255 255 237 237 237 153 153 153 222 222 222 172 172 172 255 255 255 255 255 255 255 255 255 
255 255 255 255 255 255 255 255 255 255 255 255 255 255 255 165 165 165 129 129 129 255 255 255 255 255 255 255 255 255 255 255 255 
255 255 255 255 255 255 255 255 255 255 255 255 255 255 255 239 239 239 147 147 147 255 255 255 255 255 255 255 255 255 255 255 255 
255 255 255 255 255 255 255 255 255 255 255 255 255 255 255 239 239 239 147 147 147 255 255 255 255 255 255 255 255 255 255 255 255 
255 255 255 255 255 255 255 255 255 255 255 255 255 255 255 239 239 239 147 147 147 255 255 255 255 255 255 255 255 255 255 255 255 
255 255 255 255 255 255 255 255 255 255 255 255 255 255 255 239 239 239 147 147 147 255 255 255 255 255 255 255 255 255 255 255 255 
234 234 234 255 255 255 255 255 255 255 255 255 255 255 255 239 239 239 147 147 147 255 255 255 255 255 255 255 255 255 255 255 255 
