P3
9 21 
255 
255 255 255 255 255 255 255 255 255 255 255 255 255 255 255 255 255 255 255 255 255 255 255 255 255 255 255 
255 255 255 255 255 255 255 255 255 255 255 255 255 255 255 255 255 255 255 255 255 255 255 255 255 255 255 
255 255 255 255 255 255 255 255 255 255 255 255 255 255 255 255 255 255 255 255 255 255 255 255 255 255 255 
255 255 255 255 255 255 255 255 255 255 255 255 255 255 255 255 255 255 255 255 255 255 255 255 255 255 255 
255 255 255 255 255 255 255 255 255 255 255 255 255 255 255 255 255 255 255 255 255 255 255 255 255 255 255 
255 255 255 255 255 255 255 255 255 255 255 255 255 255 255 255 255 255 255 255 255 255 255 255 255 255 255 
255 255 255 255 255 255 233 233 233 127 127 127 130 130 130 132 132 132 122 122 122 217 217 217 255 255 255 
255 255 255 249 249 249 115 115 115 248 248 248 255 255 255 255 255 255 252 252 252 119 119 119 235 235 235 
255 255 255 159 159 159 211 211 211 255 255 255 255 255 255 255 255 255 255 255 255 238 238 238 145 145 145 
255 255 255 125 125 125 255 255 255 255 255 255 255 255 255 255 255 255 255 255 255 255 255 255 211 211 211 
255 255 255 129 129 129 255 255 255 255 255 255 255 255 255 255 255 255 255 255 255 255 255 255 255 255 255 
255 255 255 130 130 130 255 255 255 255 255 255 255 255 255 255 255 255 255 255 255 255 255 255 255 255 255 
255 255 255 126 126 126 255 255 255 255 255 255 255 255 255 255 255 255 255 255 255 255 255 255 242 242 242 
255 255 255 160 160 160 211 211 211 255 255 255 255 255 255 255 255 255 255 255 255 246 246 246 141 141 141 
255 255 255 249 249 249 114 114 114 247 247 247 255 255 255 255 255 255 254 254 254 133 133 133 225 225 225 
255 255 255 255 255 255 233 233 233 124 124 124 126 126 126 129 129 129 122 122 122 209 209 209 255 255 255 
255 255 255 255 255 255 255 255 255 255 255 255 255 255 255 255 255 255 255 255 255 255 255 255 255 255 255 
255 255 255 255 255 255 255 255 255 255 255 255 255 255 255 255 255 255 255 255 255 255 255 255 255 255 255 
255 255 255 255 255 255 255 255 255 255 255 255 255 255 255 255 255 255 255 255 255 255 255 255 255 255 255 
255 255 255 255 255 255 255 255 255 255 255 255 255 255 255 255 255 255 255 255 255 255 255 255 255 255 255 
255 255 255 255 255 255 255 255 255 255 255 255 255 255 255 255 255 255 255 255 255 255 255 255 255 255 255 
