P3
10 21 
255 
255 255 255 255 255 255 255 255 255 255 255 255 255 255 255 255 255 255 255 255 255 255 255 255 255 255 255 255 255 255 
255 255 255 255 255 255 255 255 255 255 255 255 255 255 255 255 255 255 255 255 255 255 255 255 255 255 255 255 255 255 
255 255 255 255 255 255 255 255 255 255 255 255 255 255 255 255 255 255 255 255 255 255 255 255 135 135 135 255 255 255 
255 255 255 255 255 255 255 255 255 255 255 255 255 255 255 255 255 255 255 255 255 255 255 255 135 135 135 255 255 255 
255 255 255 255 255 255 255 255 255 255 255 255 255 255 255 255 255 255 255 255 255 255 255 255 135 135 135 255 255 255 
255 255 255 255 255 255 255 255 255 255 255 255 255 255 255 255 255 255 255 255 255 255 255 255 135 135 135 255 255 255 
255 255 255 255 255 255 249 249 249 133 133 133 128 128 128 130 130 130 128 128 128 212 212 212 135 135 135 255 255 255 
255 255 255 255 255 255 136 136 136 227 227 227 255 255 255 255 255 255 255 255 255 150 150 150 105 105 105 255 255 255 
255 255 255 236 236 236 149 149 149 255 255 255 255 255 255 255 255 255 255 255 255 254 254 254 85 85 85 255 255 255 
255 255 255 184 184 184 208 208 208 255 255 255 255 255 255 255 255 255 255 255 255 255 255 255 135 135 135 255 255 255 
255 255 255 155 155 155 236 236 236 255 255 255 255 255 255 255 255 255 255 255 255 255 255 255 135 135 135 255 255 255 
255 255 255 157 157 157 232 232 232 255 255 255 255 255 255 255 255 255 255 255 255 255 255 255 135 135 135 255 255 255 
255 255 255 186 186 186 204 204 204 255 255 255 255 255 255 255 255 255 255 255 255 255 255 255 135 135 135 255 255 255 
255 255 255 239 239 239 141 141 141 255 255 255 255 255 255 255 255 255 255 255 255 255 255 255 111 111 111 255 255 255 
255 255 255 255 255 255 139 139 139 226 226 226 255 255 255 255 255 255 255 255 255 169 169 169 87 87 87 255 255 255 
255 255 255 255 255 255 250 250 250 134 134 134 125 125 125 126 126 126 125 125 125 197 197 197 135 135 135 255 255 255 
255 255 255 255 255 255 255 255 255 255 255 255 255 255 255 255 255 255 255 255 255 255 255 255 255 255 255 255 255 255 
255 255 255 255 255 255 255 255 255 255 255 255 255 255 255 255 255 255 255 255 255 255 255 255 255 255 255 255 255 255 
255 255 255 255 255 255 255 255 255 255 255 255 255 255 255 255 255 255 255 255 255 255 255 255 255 255 255 255 255 255 
255 255 255 255 255 255 255 255 255 255 255 255 255 255 255 255 255 255 255 255 255 255 255 255 255 255 255 255 255 255 
255 255 255 255 255 255 255 255 255 255 255 255 255 255 255 255 255 255 255 255 255 255 255 255 255 255 255 255 255 255 
