P3
9 21 
255 
255 255 255 255 255 255 255 255 255 255 255 255 255 255 255 255 255 255 255 255 255 255 255 255 255 255 255 
255 255 255 255 255 255 255 255 255 255 255 255 255 255 255 255 255 255 255 255 255 255 255 255 255 255 255 
255 255 255 255 255 255 255 255 255 255 255 255 255 255 255 255 255 255 255 255 255 255 255 255 255 255 255 
255 255 255 255 255 255 255 255 255 255 255 255 255 255 255 255 255 255 255 255 255 255 255 255 255 255 255 
255 255 255 255 255 255 255 255 255 255 255 255 255 255 255 255 255 255 255 255 255 255 255 255 255 255 255 
255 255 255 255 255 255 255 255 255 255 255 255 255 255 255 255 255 255 255 255 255 255 255 255 255 255 255 
255 255 255 255 255 255 243 243 243 136 136 136 134 134 134 127 127 127 115 115 115 224 224 224 255 255 255 
255 255 255 252 252 252 112 112 112 242 242 242 255 255 255 255 255 255 248 248 248 104 104 104 242 242 242 
255 255 255 157 157 157 214 214 214 255 255 255 255 255 255 255 255 255 255 255 255 224 224 224 147 147 147 
255 255 255 123 123 123 255 255 255 255 255 255 255 255 255 255 255 255 255 255 255 255 255 255 129 129 129 
255 255 255 89 89 89 135 135 135 135 135 135 135 135 135 135 135 135 135 135 135 135 135 135 137 137 137 
255 255 255 136 136 136 255 255 255 255 255 255 255 255 255 255 255 255 255 255 255 255 255 255 255 255 255 
255 255 255 132 132 132 255 255 255 255 255 255 255 255 255 255 255 255 255 255 255 255 255 255 255 255 255 
255 255 255 160 160 160 215 215 215 255 255 255 255 255 255 255 255 255 255 255 255 255 255 255 255 255 255 
255 255 255 253 253 253 112 112 112 232 232 232 255 255 255 255 255 255 255 255 255 192 192 192 213 213 213 
255 255 255 255 255 255 247 247 247 135 135 135 128 128 128 132 132 132 129 129 129 172 172 172 255 255 255 
255 255 255 255 255 255 255 255 255 255 255 255 255 255 255 255 255 255 255 255 255 255 255 255 255 255 255 
255 255 255 255 255 255 255 255 255 255 255 255 255 255 255 255 255 255 255 255 255 255 255 255 255 255 255 
255 255 255 255 255 255 255 255 255 255 255 255 255 255 255 255 255 255 255 255 255 255 255 255 255 255 255 
255 255 255 255 255 255 255 255 255 255 255 255 255 255 255 255 255 255 255 255 255 255 255 255 255 255 255 
255 255 255 255 255 255 255 255 255 255 255 255 255 255 255 255 255 255 255 255 255 255 255 255 255 255 255 
