P3
6 21 
255 
255 255 255 255 255 255 255 255 255 255 255 255 255 255 255 255 255 255 
255 255 255 255 255 255 255 255 255 255 255 255 255 255 255 255 255 255 
255 255 255 255 255 255 255 255 255 203 203 203 130 130 130 138 138 138 
255 255 255 255 255 255 234 234 234 127 127 127 255 255 255 255 255 255 
255 255 255 255 255 255 179 179 179 211 211 211 255 255 255 255 255 255 
255 255 255 255 255 255 167 167 167 223 223 223 255 255 255 255 255 255 
255 255 255 127 127 127 83 83 83 111 111 111 127 127 127 173 173 173 
255 255 255 255 255 255 167 167 167 223 223 223 255 255 255 255 255 255 
255 255 255 255 255 255 167 167 167 223 223 223 255 255 255 255 255 255 
255 255 255 255 255 255 167 167 167 223 223 223 255 255 255 255 255 255 
255 255 255 255 255 255 167 167 167 223 223 223 255 255 255 255 255 255 
255 255 255 255 255 255 167 167 167 223 223 223 255 255 255 255 255 255 
255 255 255 255 255 255 167 167 167 223 223 223 255 255 255 255 255 255 
255 255 255 255 255 255 167 167 167 223 223 223 255 255 255 255 255 255 
255 255 255 255 255 255 167 167 167 223 223 223 255 255 255 255 255 255 
255 255 255 255 255 255 167 167 167 223 223 223 255 255 255 255 255 255 
255 255 255 255 255 255 255 255 255 255 255 255 255 255 255 255 255 255 
255 255 255 255 255 255 255 255 255 255 255 255 255 255 255 255 255 255 
255 255 255 255 255 255 255 255 255 255 255 255 255 255 255 255 255 255 
255 255 255 255 255 255 255 255 255 255 255 255 255 255 255 255 255 255 
255 255 255 255 255 255 255 255 255 255 255 255 255 255 255 255 255 255 
