P3
10 21 
255 
255 255 255 255 255 255 255 255 255 255 255 255 255 255 255 255 255 255 255 255 255 255 255 255 255 255 255 255 255 255 
255 255 255 255 255 255 255 255 255 255 255 255 255 255 255 255 255 255 255 255 255 255 255 255 255 255 255 255 255 255 
229 229 229 255 255 255 255 255 255 255 255 255 255 255 255 255 255 255 255 255 255 255 255 255 255 255 255 255 255 255 
255 255 255 255 255 255 255 255 255 255 255 255 255 255 255 255 255 255 255 255 255 255 255 255 255 255 255 255 255 255 
255 255 255 255 255 255 255 255 255 255 255 255 255 255 255 255 255 255 255 255 255 255 255 255 255 255 255 255 255 255 
255 255 255 255 255 255 255 255 255 255 255 255 255 255 255 255 255 255 255 255 255 255 255 255 255 255 255 255 255 255 
255 255 255 255 255 255 179 179 179 124 124 124 131 131 131 130 130 130 162 162 162 187 187 187 199 199 199 255 255 255 
255 255 255 205 205 205 158 158 158 255 255 255 255 255 255 255 255 255 210 210 210 95 95 95 199 199 199 255 255 255 
255 255 255 130 130 130 255 255 255 255 255 255 255 255 255 255 255 255 255 255 255 132 132 132 199 199 199 255 255 255 
255 255 255 137 137 137 255 255 255 255 255 255 255 255 255 255 255 255 255 255 255 187 187 187 199 199 199 255 255 255 
249 249 249 142 142 142 255 255 255 255 255 255 255 255 255 255 255 255 255 255 255 187 187 187 199 199 199 255 255 255 
251 251 251 139 139 139 255 255 255 255 255 255 255 255 255 255 255 255 255 255 255 187 187 187 199 199 199 255 255 255 
255 255 255 135 135 135 255 255 255 255 255 255 255 255 255 255 255 255 255 255 255 187 187 187 199 199 199 255 255 255 
255 255 255 126 126 126 253 253 253 255 255 255 255 255 255 255 255 255 255 255 255 159 159 159 199 199 199 255 255 255 
255 255 255 208 208 208 155 155 155 255 255 255 255 255 255 255 255 255 222 222 222 82 82 82 199 199 199 255 255 255 
255 255 255 255 255 255 181 181 181 121 121 121 127 127 127 124 124 124 146 146 146 184 184 184 200 200 200 255 255 255 
255 255 255 255 255 255 255 255 255 255 255 255 255 255 255 255 255 255 255 255 255 163 163 163 224 224 224 255 255 255 
255 255 255 254 254 254 255 255 255 255 255 255 255 255 255 255 255 255 255 255 255 126 126 126 253 253 253 255 255 255 
255 255 255 196 196 196 160 160 160 255 255 255 255 255 255 255 255 255 207 207 207 146 146 146 255 255 255 255 255 255 
255 255 255 255 255 255 183 183 183 125 125 125 130 130 130 117 117 117 138 138 138 253 253 253 255 255 255 255 255 255 
255 255 255 255 255 255 255 255 255 255 255 255 255 255 255 255 255 255 255 255 255 255 255 255 255 255 255 255 255 255 
