P3
2 21 
255 
255 255 255 255 255 255 
255 255 255 255 255 255 
255 255 255 255 255 255 
255 255 255 79 79 79 
255 255 255 255 255 255 
255 255 255 255 255 255 
255 255 255 135 135 135 
255 255 255 135 135 135 
255 255 255 135 135 135 
255 255 255 135 135 135 
255 255 255 135 135 135 
255 255 255 135 135 135 
255 255 255 135 135 135 
255 255 255 135 135 135 
255 255 255 135 135 135 
255 255 255 135 135 135 
255 255 255 255 255 255 
255 255 255 255 255 255 
255 255 255 255 255 255 
255 255 255 255 255 255 
255 255 255 255 255 255 
