P3
5 21 
255 
255 255 255 255 255 255 255 255 255 255 255 255 255 255 255 
255 255 255 255 255 255 255 255 255 255 255 255 255 255 255 
255 255 255 255 255 255 255 255 255 255 255 255 255 255 255 
255 255 255 255 255 255 222 222 222 114 114 114 255 255 255 
255 255 255 255 255 255 255 255 255 255 255 255 255 255 255 
255 255 255 255 255 255 255 255 255 255 255 255 255 255 255 
255 255 255 255 255 255 243 243 243 147 147 147 255 255 255 
255 255 255 255 255 255 243 243 243 147 147 147 255 255 255 
255 255 255 255 255 255 243 243 243 147 147 147 255 255 255 
255 255 255 255 255 255 243 243 243 147 147 147 255 255 255 
255 255 255 255 255 255 243 243 243 147 147 147 255 255 255 
255 255 255 255 255 255 243 243 243 147 147 147 255 255 255 
255 255 255 255 255 255 243 243 243 147 147 147 255 255 255 
255 255 255 255 255 255 243 243 243 147 147 147 255 255 255 
255 255 255 255 255 255 243 243 243 147 147 147 255 255 255 
255 255 255 255 255 255 243 243 243 147 147 147 255 255 255 
255 255 255 255 255 255 243 243 243 147 147 147 255 255 255 
255 255 255 255 255 255 231 231 231 160 160 160 255 255 255 
255 255 255 255 255 255 161 161 161 212 212 212 255 255 255 
138 138 138 124 124 124 150 150 150 255 255 255 255 255 255 
255 255 255 255 255 255 255 255 255 255 255 255 255 255 255 
