P3
9 21 
255 
255 255 255 255 255 255 255 255 255 255 255 255 255 255 255 255 255 255 255 255 255 255 255 255 255 255 255 
255 255 255 255 255 255 255 255 255 255 255 255 255 255 255 255 255 255 255 255 255 255 255 255 255 255 255 
255 255 255 187 187 187 203 203 203 255 255 255 255 255 255 255 255 255 255 255 255 255 255 255 255 255 255 
255 255 255 187 187 187 203 203 203 255 255 255 255 255 255 255 255 255 255 255 255 255 255 255 255 255 255 
255 255 255 187 187 187 203 203 203 255 255 255 255 255 255 255 255 255 255 255 255 255 255 255 255 255 255 
255 255 255 187 187 187 203 203 203 255 255 255 255 255 255 255 255 255 255 255 255 255 255 255 255 255 255 
255 255 255 187 187 187 203 203 203 255 255 255 255 255 255 255 255 255 237 237 237 111 111 111 242 242 242 
255 255 255 187 187 187 203 203 203 255 255 255 255 255 255 234 234 234 112 112 112 244 244 244 255 255 255 
255 255 255 187 187 187 203 203 203 255 255 255 232 232 232 112 112 112 246 246 246 255 255 255 255 255 255 
255 255 255 187 187 187 203 203 203 229 229 229 114 114 114 248 248 248 255 255 255 255 255 255 255 255 255 
255 255 255 187 187 187 174 174 174 75 75 75 202 202 202 255 255 255 255 255 255 255 255 255 255 255 255 
255 255 255 187 187 187 114 114 114 252 252 252 117 117 117 236 236 236 255 255 255 255 255 255 255 255 255 
255 255 255 187 187 187 203 203 203 255 255 255 244 244 244 113 113 113 251 251 251 255 255 255 255 255 255 
255 255 255 187 187 187 203 203 203 255 255 255 255 255 255 223 223 223 130 130 130 255 255 255 255 255 255 
255 255 255 187 187 187 203 203 203 255 255 255 255 255 255 255 255 255 191 191 191 163 163 163 255 255 255 
255 255 255 187 187 187 203 203 203 255 255 255 255 255 255 255 255 255 255 255 255 155 155 155 200 200 200 
255 255 255 255 255 255 255 255 255 255 255 255 255 255 255 255 255 255 255 255 255 255 255 255 255 255 255 
255 255 255 255 255 255 255 255 255 255 255 255 255 255 255 255 255 255 255 255 255 255 255 255 255 255 255 
255 255 255 255 255 255 255 255 255 255 255 255 255 255 255 255 255 255 255 255 255 255 255 255 255 255 255 
255 255 255 255 255 255 255 255 255 255 255 255 255 255 255 255 255 255 255 255 255 255 255 255 255 255 255 
255 255 255 255 255 255 255 255 255 255 255 255 255 255 255 255 255 255 255 255 255 255 255 255 255 255 255 
