P3
3 21 
255 
255 255 255 255 255 255 255 255 255 
255 255 255 255 255 255 255 255 255 
255 255 255 135 135 135 255 255 255 
255 255 255 135 135 135 255 255 255 
255 255 255 135 135 135 255 255 255 
255 255 255 135 135 135 255 255 255 
255 255 255 135 135 135 255 255 255 
255 255 255 135 135 135 255 255 255 
255 255 255 135 135 135 255 255 255 
255 255 255 135 135 135 255 255 255 
255 255 255 135 135 135 255 255 255 
255 255 255 135 135 135 255 255 255 
255 255 255 135 135 135 255 255 255 
255 255 255 135 135 135 255 255 255 
255 255 255 135 135 135 255 255 255 
255 255 255 135 135 135 255 255 255 
255 255 255 255 255 255 255 255 255 
255 255 255 255 255 255 255 255 255 
255 255 255 255 255 255 255 255 255 
255 255 255 255 255 255 255 255 255 
255 255 255 255 255 255 255 255 255 
