P3
17 21 
255 
255 255 255 255 255 255 255 255 255 255 255 255 255 255 255 255 255 255 255 255 255 255 255 255 255 255 255 255 255 255 255 255 255 255 255 255 255 255 255 255 255 255 255 255 255 255 255 255 255 255 255 
255 255 255 255 255 255 255 255 255 255 255 255 255 255 255 255 255 255 255 255 255 255 255 255 255 255 255 255 255 255 255 255 255 255 255 255 255 255 255 255 255 255 255 255 255 255 255 255 255 255 255 
255 255 255 255 255 255 255 255 255 255 255 255 255 255 255 255 255 255 255 255 255 255 255 255 255 255 255 255 255 255 255 255 255 255 255 255 255 255 255 255 255 255 255 255 255 255 255 255 255 255 255 
255 255 255 255 255 255 255 255 255 255 255 255 255 255 255 255 255 255 255 255 255 255 255 255 255 255 255 255 255 255 255 255 255 255 255 255 255 255 255 255 255 255 255 255 255 255 255 255 255 255 255 
255 255 255 255 255 255 255 255 255 255 255 255 255 255 255 255 255 255 255 255 255 255 255 255 255 255 255 255 255 255 255 255 255 255 255 255 255 255 255 255 255 255 255 255 255 255 255 255 255 255 255 
255 255 255 255 255 255 255 255 255 255 255 255 255 255 255 255 255 255 255 255 255 255 255 255 255 255 255 255 255 255 255 255 255 255 255 255 255 255 255 255 255 255 255 255 255 255 255 255 255 255 255 
255 255 255 219 219 219 167 167 167 208 208 208 131 131 131 134 134 134 125 125 125 141 141 141 255 255 255 239 239 239 136 136 136 135 135 135 131 131 131 120 120 120 227 227 227 255 255 255 255 255 255 
255 255 255 219 219 219 133 133 133 146 146 146 255 255 255 255 255 255 255 255 255 197 197 197 161 161 161 120 120 120 245 245 245 255 255 255 255 255 255 249 249 249 119 119 119 255 255 255 255 255 255 
255 255 255 219 219 219 68 68 68 254 254 254 255 255 255 255 255 255 255 255 255 255 255 255 62 62 62 231 231 231 255 255 255 255 255 255 255 255 255 255 255 255 151 151 151 239 239 239 255 255 255 
255 255 255 219 219 219 144 144 144 255 255 255 255 255 255 255 255 255 255 255 255 255 255 255 126 126 126 255 255 255 255 255 255 255 255 255 255 255 255 255 255 255 181 181 181 209 209 209 255 255 255 
255 255 255 219 219 219 167 167 167 255 255 255 255 255 255 255 255 255 255 255 255 255 255 255 135 135 135 255 255 255 255 255 255 255 255 255 255 255 255 255 255 255 187 187 187 203 203 203 255 255 255 
255 255 255 219 219 219 167 167 167 255 255 255 255 255 255 255 255 255 255 255 255 255 255 255 135 135 135 255 255 255 255 255 255 255 255 255 255 255 255 255 255 255 187 187 187 203 203 203 255 255 255 
255 255 255 219 219 219 167 167 167 255 255 255 255 255 255 255 255 255 255 255 255 255 255 255 135 135 135 255 255 255 255 255 255 255 255 255 255 255 255 255 255 255 187 187 187 203 203 203 255 255 255 
255 255 255 219 219 219 167 167 167 255 255 255 255 255 255 255 255 255 255 255 255 255 255 255 135 135 135 255 255 255 255 255 255 255 255 255 255 255 255 255 255 255 187 187 187 203 203 203 255 255 255 
255 255 255 219 219 219 167 167 167 255 255 255 255 255 255 255 255 255 255 255 255 255 255 255 135 135 135 255 255 255 255 255 255 255 255 255 255 255 255 255 255 255 187 187 187 203 203 203 255 255 255 
255 255 255 219 219 219 167 167 167 255 255 255 255 255 255 255 255 255 255 255 255 255 255 255 135 135 135 255 255 255 255 255 255 255 255 255 255 255 255 255 255 255 187 187 187 203 203 203 255 255 255 
255 255 255 255 255 255 255 255 255 255 255 255 255 255 255 255 255 255 255 255 255 255 255 255 255 255 255 255 255 255 255 255 255 255 255 255 255 255 255 255 255 255 255 255 255 255 255 255 255 255 255 
255 255 255 255 255 255 255 255 255 255 255 255 255 255 255 255 255 255 255 255 255 255 255 255 255 255 255 255 255 255 255 255 255 255 255 255 255 255 255 255 255 255 255 255 255 255 255 255 255 255 255 
255 255 255 255 255 255 255 255 255 255 255 255 255 255 255 255 255 255 255 255 255 255 255 255 255 255 255 255 255 255 255 255 255 255 255 255 255 255 255 255 255 255 255 255 255 255 255 255 255 255 255 
255 255 255 255 255 255 255 255 255 255 255 255 255 255 255 255 255 255 255 255 255 255 255 255 255 255 255 255 255 255 255 255 255 255 255 255 255 255 255 255 255 255 255 255 255 255 255 255 255 255 255 
255 255 255 255 255 255 255 255 255 255 255 255 255 255 255 255 255 255 255 255 255 255 255 255 255 255 255 255 255 255 255 255 255 255 255 255 255 255 255 255 255 255 255 255 255 255 255 255 255 255 255 
