P3
9 21 
255 
255 255 255 255 255 255 255 255 255 255 255 255 255 255 255 255 255 255 255 255 255 255 255 255 255 255 255 
255 255 255 255 255 255 255 255 255 255 255 255 255 255 255 255 255 255 255 255 255 255 255 255 255 255 255 
255 255 255 255 255 255 255 255 255 255 255 255 255 255 255 255 255 255 255 255 255 255 255 255 255 255 255 
255 255 255 255 255 255 255 255 255 255 255 255 255 255 255 255 255 255 255 255 255 255 255 255 255 255 255 
255 255 255 255 255 255 255 255 255 255 255 255 255 255 255 255 255 255 255 255 255 255 255 255 255 255 255 
255 255 255 255 255 255 255 255 255 255 255 255 255 255 255 255 255 255 255 255 255 255 255 255 255 255 255 
255 255 255 135 135 135 236 236 236 130 130 130 128 128 128 131 131 131 130 130 130 246 246 246 255 255 255 
255 255 255 129 129 129 120 120 120 245 245 245 255 255 255 255 255 255 230 230 230 140 140 140 255 255 255 
255 255 255 52 52 52 236 236 236 255 255 255 255 255 255 255 255 255 255 255 255 134 134 134 255 255 255 
255 255 255 112 112 112 255 255 255 255 255 255 255 255 255 255 255 255 255 255 255 133 133 133 255 255 255 
255 255 255 135 135 135 255 255 255 255 255 255 255 255 255 255 255 255 255 255 255 131 131 131 255 255 255 
255 255 255 135 135 135 255 255 255 255 255 255 255 255 255 255 255 255 255 255 255 131 131 131 255 255 255 
255 255 255 135 135 135 255 255 255 255 255 255 255 255 255 255 255 255 255 255 255 131 131 131 255 255 255 
255 255 255 135 135 135 255 255 255 255 255 255 255 255 255 255 255 255 255 255 255 131 131 131 255 255 255 
255 255 255 135 135 135 255 255 255 255 255 255 255 255 255 255 255 255 255 255 255 131 131 131 255 255 255 
255 255 255 135 135 135 255 255 255 255 255 255 255 255 255 255 255 255 255 255 255 131 131 131 255 255 255 
255 255 255 255 255 255 255 255 255 255 255 255 255 255 255 255 255 255 255 255 255 255 255 255 255 255 255 
255 255 255 255 255 255 255 255 255 255 255 255 255 255 255 255 255 255 255 255 255 255 255 255 255 255 255 
255 255 255 255 255 255 255 255 255 255 255 255 255 255 255 255 255 255 255 255 255 255 255 255 255 255 255 
255 255 255 255 255 255 255 255 255 255 255 255 255 255 255 255 255 255 255 255 255 255 255 255 255 255 255 
255 255 255 255 255 255 255 255 255 255 255 255 255 255 255 255 255 255 255 255 255 255 255 255 255 255 255 
