P3
10 21 
255 
255 255 255 255 255 255 255 255 255 255 255 255 255 255 255 255 255 255 255 255 255 255 255 255 255 255 255 255 255 255 
255 255 255 255 255 255 255 255 255 255 255 255 255 255 255 255 255 255 255 255 255 255 255 255 255 255 255 255 255 255 
255 255 255 255 255 255 255 255 255 255 255 255 255 255 255 255 255 255 255 255 255 255 255 255 255 255 255 255 255 255 
255 255 255 255 255 255 255 255 255 255 255 255 255 255 255 255 255 255 255 255 255 255 255 255 255 255 255 255 255 255 
255 255 255 255 255 255 255 255 255 255 255 255 255 255 255 255 255 255 255 255 255 255 255 255 255 255 255 255 255 255 
255 255 255 255 255 255 255 255 255 255 255 255 255 255 255 255 255 255 255 255 255 255 255 255 255 255 255 255 255 255 
255 255 255 255 255 255 251 251 251 144 144 144 130 130 130 132 132 132 124 124 124 165 165 165 255 255 255 255 255 255 
255 255 255 255 255 255 115 115 115 222 222 222 255 255 255 255 255 255 255 255 255 187 187 187 145 145 145 255 255 255 
255 255 255 183 183 183 187 187 187 255 255 255 255 255 255 255 255 255 255 255 255 255 255 255 133 133 133 231 231 231 
255 255 255 130 130 130 255 255 255 255 255 255 255 255 255 255 255 255 255 255 255 255 255 255 226 226 226 155 155 155 
255 255 255 137 137 137 255 255 255 255 255 255 255 255 255 255 255 255 255 255 255 255 255 255 255 255 255 134 134 134 
255 255 255 134 134 134 255 255 255 255 255 255 255 255 255 255 255 255 255 255 255 255 255 255 255 255 255 136 136 136 
255 255 255 128 128 128 255 255 255 255 255 255 255 255 255 255 255 255 255 255 255 255 255 255 230 230 230 156 156 156 
255 255 255 183 183 183 186 186 186 255 255 255 255 255 255 255 255 255 255 255 255 255 255 255 140 140 140 231 231 231 
255 255 255 255 255 255 115 115 115 220 220 220 255 255 255 255 255 255 255 255 255 192 192 192 147 147 147 255 255 255 
255 255 255 255 255 255 251 251 251 139 139 139 123 123 123 129 129 129 126 126 126 165 165 165 255 255 255 255 255 255 
255 255 255 255 255 255 255 255 255 255 255 255 255 255 255 255 255 255 255 255 255 255 255 255 255 255 255 255 255 255 
255 255 255 255 255 255 255 255 255 255 255 255 255 255 255 255 255 255 255 255 255 255 255 255 255 255 255 255 255 255 
255 255 255 255 255 255 255 255 255 255 255 255 255 255 255 255 255 255 255 255 255 255 255 255 255 255 255 255 255 255 
255 255 255 255 255 255 255 255 255 255 255 255 255 255 255 255 255 255 255 255 255 255 255 255 255 255 255 255 255 255 
255 255 255 255 255 255 255 255 255 255 255 255 255 255 255 255 255 255 255 255 255 255 255 255 255 255 255 255 255 255 
