P3
10 21 
255 
255 255 255 255 255 255 255 255 255 255 255 255 255 255 255 255 255 255 255 255 255 255 255 255 255 255 255 255 255 255 
255 255 255 255 255 255 255 255 255 255 255 255 255 255 255 255 255 255 255 255 255 255 255 255 255 255 255 255 255 255 
255 255 255 255 255 255 255 255 255 255 255 255 255 255 255 255 255 255 255 255 255 255 255 255 255 255 255 255 255 255 
255 255 255 255 255 255 255 255 255 255 255 255 255 255 255 255 255 255 255 255 255 255 255 255 255 255 255 255 255 255 
255 255 255 255 255 255 255 255 255 255 255 255 255 255 255 255 255 255 255 255 255 255 255 255 255 255 255 255 255 255 
255 255 255 255 255 255 255 255 255 255 255 255 255 255 255 255 255 255 255 255 255 255 255 255 255 255 255 255 255 255 
255 255 255 215 215 215 175 175 175 163 163 163 127 127 127 131 131 131 126 126 126 172 172 172 255 255 255 255 255 255 
255 255 255 215 215 215 86 86 86 202 202 202 255 255 255 255 255 255 255 255 255 170 170 170 187 187 187 255 255 255 
255 255 255 215 215 215 126 126 126 255 255 255 255 255 255 255 255 255 255 255 255 255 255 255 113 113 113 255 255 255 
255 255 255 215 215 215 175 175 175 255 255 255 255 255 255 255 255 255 255 255 255 255 255 255 130 130 130 250 250 250 
255 255 255 215 215 215 175 175 175 255 255 255 255 255 255 255 255 255 255 255 255 255 255 255 152 152 152 230 230 230 
255 255 255 215 215 215 175 175 175 255 255 255 255 255 255 255 255 255 255 255 255 255 255 255 156 156 156 236 236 236 
255 255 255 215 215 215 175 175 175 255 255 255 255 255 255 255 255 255 255 255 255 255 255 255 139 139 139 255 255 255 
255 255 255 215 215 215 151 151 151 255 255 255 255 255 255 255 255 255 255 255 255 255 255 255 134 134 134 255 255 255 
255 255 255 215 215 215 73 73 73 217 217 217 255 255 255 255 255 255 255 255 255 170 170 170 198 198 198 255 255 255 
255 255 255 215 215 215 173 173 173 149 149 149 124 124 124 127 127 127 123 123 123 174 174 174 255 255 255 255 255 255 
255 255 255 215 215 215 175 175 175 255 255 255 255 255 255 255 255 255 255 255 255 255 255 255 255 255 255 255 255 255 
255 255 255 215 215 215 175 175 175 255 255 255 255 255 255 255 255 255 255 255 255 255 255 255 255 255 255 255 255 255 
255 255 255 215 215 215 175 175 175 255 255 255 255 255 255 255 255 255 255 255 255 255 255 255 255 255 255 255 255 255 
255 255 255 215 215 215 175 175 175 255 255 255 255 255 255 255 255 255 255 255 255 255 255 255 255 255 255 255 255 255 
255 255 255 255 255 255 255 255 255 255 255 255 255 255 255 255 255 255 255 255 255 255 255 255 255 255 255 255 255 255 
