P3
6 21 
255 
255 255 255 255 255 255 255 255 255 255 255 255 255 255 255 255 255 255 
255 255 255 255 255 255 255 255 255 255 255 255 255 255 255 255 255 255 
255 255 255 255 255 255 255 255 255 255 255 255 255 255 255 255 255 255 
255 255 255 255 255 255 255 255 255 255 255 255 255 255 255 255 255 255 
255 255 255 255 255 255 255 255 255 255 255 255 255 255 255 255 255 255 
255 255 255 255 255 255 255 255 255 255 255 255 255 255 255 255 255 255 
255 255 255 147 147 147 240 240 240 135 135 135 125 125 125 154 154 154 
255 255 255 147 147 147 129 129 129 228 228 228 255 255 255 255 255 255 
255 255 255 147 147 147 161 161 161 255 255 255 255 255 255 255 255 255 
255 255 255 147 147 147 231 231 231 255 255 255 255 255 255 255 255 255 
255 255 255 147 147 147 243 243 243 255 255 255 255 255 255 255 255 255 
255 255 255 147 147 147 243 243 243 255 255 255 255 255 255 255 255 255 
255 255 255 147 147 147 243 243 243 255 255 255 255 255 255 255 255 255 
255 255 255 147 147 147 243 243 243 255 255 255 255 255 255 255 255 255 
255 255 255 147 147 147 243 243 243 255 255 255 255 255 255 255 255 255 
255 255 255 147 147 147 243 243 243 255 255 255 255 255 255 255 255 255 
255 255 255 255 255 255 255 255 255 255 255 255 255 255 255 255 255 255 
255 255 255 255 255 255 255 255 255 255 255 255 255 255 255 255 255 255 
255 255 255 255 255 255 255 255 255 255 255 255 255 255 255 255 255 255 
255 255 255 255 255 255 255 255 255 255 255 255 255 255 255 255 255 255 
255 255 255 255 255 255 255 255 255 255 255 255 255 255 255 255 255 255 
