P3
9 21 
255 
255 255 255 255 255 255 255 255 255 255 255 255 255 255 255 255 255 255 255 255 255 255 255 255 255 255 255 
255 255 255 255 255 255 255 255 255 255 255 255 255 255 255 255 255 255 255 255 255 255 255 255 255 255 255 
255 255 255 255 255 255 255 255 255 255 255 255 255 255 255 255 255 255 255 255 255 255 255 255 255 255 255 
255 255 255 255 255 255 255 255 255 255 255 255 255 255 255 255 255 255 255 255 255 255 255 255 255 255 255 
255 255 255 255 255 255 255 255 255 255 255 255 255 255 255 255 255 255 255 255 255 255 255 255 255 255 255 
255 255 255 255 255 255 255 255 255 255 255 255 255 255 255 255 255 255 255 255 255 255 255 255 255 255 255 
255 255 255 255 255 255 152 152 152 129 129 129 132 132 132 126 126 126 136 136 136 250 250 250 255 255 255 
255 255 255 160 160 160 207 207 207 255 255 255 255 255 255 255 255 255 216 216 216 133 133 133 255 255 255 
255 255 255 134 134 134 255 255 255 255 255 255 255 255 255 255 255 255 255 255 255 159 159 159 255 255 255 
255 255 255 164 164 164 199 199 199 255 255 255 255 255 255 255 255 255 255 255 255 255 255 255 255 255 255 
255 255 255 255 255 255 159 159 159 129 129 129 159 159 159 228 228 228 255 255 255 255 255 255 255 255 255 
255 255 255 255 255 255 255 255 255 255 255 255 233 233 233 159 159 159 115 115 115 230 230 230 255 255 255 
255 255 255 255 255 255 255 255 255 255 255 255 255 255 255 255 255 255 244 244 244 112 112 112 255 255 255 
255 255 255 176 176 176 255 255 255 255 255 255 255 255 255 255 255 255 255 255 255 131 131 131 255 255 255 
255 255 255 128 128 128 229 229 229 255 255 255 255 255 255 255 255 255 228 228 228 126 126 126 255 255 255 
255 255 255 248 248 248 139 139 139 128 128 128 128 128 128 124 124 124 126 126 126 245 245 245 255 255 255 
255 255 255 255 255 255 255 255 255 255 255 255 255 255 255 255 255 255 255 255 255 255 255 255 255 255 255 
255 255 255 255 255 255 255 255 255 255 255 255 255 255 255 255 255 255 255 255 255 255 255 255 255 255 255 
255 255 255 255 255 255 255 255 255 255 255 255 255 255 255 255 255 255 255 255 255 255 255 255 255 255 255 
255 255 255 255 255 255 255 255 255 255 255 255 255 255 255 255 255 255 255 255 255 255 255 255 255 255 255 
255 255 255 255 255 255 255 255 255 255 255 255 255 255 255 255 255 255 255 255 255 255 255 255 255 255 255 
