P3
6 21 
255 
255 255 255 255 255 255 255 255 255 255 255 255 255 255 255 255 255 255 
255 255 255 255 255 255 255 255 255 255 255 255 255 255 255 255 255 255 
255 255 255 255 255 255 255 255 255 255 255 255 255 255 255 255 255 255 
255 255 255 255 255 255 193 193 193 255 255 255 255 255 255 255 255 255 
255 255 255 255 255 255 131 131 131 255 255 255 255 255 255 255 255 255 
255 255 255 255 255 255 131 131 131 255 255 255 255 255 255 255 255 255 
173 173 173 127 127 127 65 65 65 127 127 127 157 157 157 255 255 255 
255 255 255 255 255 255 131 131 131 255 255 255 255 255 255 255 255 255 
255 255 255 255 255 255 131 131 131 255 255 255 255 255 255 255 255 255 
255 255 255 255 255 255 131 131 131 255 255 255 255 255 255 255 255 255 
255 255 255 255 255 255 131 131 131 255 255 255 255 255 255 255 255 255 
255 255 255 255 255 255 131 131 131 255 255 255 255 255 255 255 255 255 
255 255 255 255 255 255 131 131 131 255 255 255 255 255 255 255 255 255 
255 255 255 255 255 255 131 131 131 255 255 255 255 255 255 255 255 255 
255 255 255 255 255 255 123 123 123 255 255 255 255 255 255 255 255 255 
255 255 255 255 255 255 185 185 185 115 115 115 125 125 125 252 252 252 
255 255 255 255 255 255 255 255 255 255 255 255 255 255 255 255 255 255 
255 255 255 255 255 255 255 255 255 255 255 255 255 255 255 255 255 255 
255 255 255 255 255 255 255 255 255 255 255 255 255 255 255 255 255 255 
255 255 255 255 255 255 255 255 255 255 255 255 255 255 255 255 255 255 
255 255 255 255 255 255 255 255 255 255 255 255 255 255 255 255 255 255 
