P3
9 21 
255 
255 255 255 255 255 255 255 255 255 255 255 255 255 255 255 255 255 255 255 255 255 255 255 255 255 255 255 
255 255 255 255 255 255 255 255 255 255 255 255 255 255 255 255 255 255 255 255 255 255 255 255 255 255 255 
255 255 255 255 255 255 255 255 255 255 255 255 255 255 255 255 255 255 255 255 255 255 255 255 255 255 255 
255 255 255 255 255 255 255 255 255 255 255 255 255 255 255 255 255 255 255 255 255 255 255 255 255 255 255 
255 255 255 255 255 255 255 255 255 255 255 255 255 255 255 255 255 255 255 255 255 255 255 255 255 255 255 
255 255 255 255 255 255 255 255 255 255 255 255 255 255 255 255 255 255 255 255 255 255 255 255 255 255 255 
255 255 255 135 135 135 255 255 255 255 255 255 255 255 255 255 255 255 255 255 255 159 159 159 227 227 227 
255 255 255 135 135 135 255 255 255 255 255 255 255 255 255 255 255 255 255 255 255 159 159 159 227 227 227 
255 255 255 135 135 135 255 255 255 255 255 255 255 255 255 255 255 255 255 255 255 159 159 159 227 227 227 
255 255 255 135 135 135 255 255 255 255 255 255 255 255 255 255 255 255 255 255 255 159 159 159 227 227 227 
255 255 255 135 135 135 255 255 255 255 255 255 255 255 255 255 255 255 255 255 255 159 159 159 227 227 227 
255 255 255 135 135 135 255 255 255 255 255 255 255 255 255 255 255 255 255 255 255 159 159 159 227 227 227 
255 255 255 136 136 136 255 255 255 255 255 255 255 255 255 255 255 255 255 255 255 159 159 159 227 227 227 
255 255 255 132 132 132 255 255 255 255 255 255 255 255 255 255 255 255 255 255 255 104 104 104 227 227 227 
255 255 255 183 183 183 176 176 176 255 255 255 255 255 255 255 255 255 195 195 195 63 63 63 227 227 227 
255 255 255 255 255 255 152 152 152 124 124 124 126 126 126 118 118 118 152 152 152 159 159 159 227 227 227 
255 255 255 255 255 255 255 255 255 255 255 255 255 255 255 255 255 255 255 255 255 255 255 255 255 255 255 
255 255 255 255 255 255 255 255 255 255 255 255 255 255 255 255 255 255 255 255 255 255 255 255 255 255 255 
255 255 255 255 255 255 255 255 255 255 255 255 255 255 255 255 255 255 255 255 255 255 255 255 255 255 255 
255 255 255 255 255 255 255 255 255 255 255 255 255 255 255 255 255 255 255 255 255 255 255 255 255 255 255 
255 255 255 255 255 255 255 255 255 255 255 255 255 255 255 255 255 255 255 255 255 255 255 255 255 255 255 
