P3
9 21 
255 
255 255 255 255 255 255 255 255 255 255 255 255 255 255 255 255 255 255 255 255 255 255 255 255 255 255 255 
255 255 255 255 255 255 255 255 255 255 255 255 255 255 255 255 255 255 255 255 255 255 255 255 255 255 255 
255 255 255 255 255 255 255 255 255 255 255 255 255 255 255 255 255 255 255 255 255 255 255 255 255 255 255 
255 255 255 255 255 255 255 255 255 255 255 255 255 255 255 255 255 255 255 255 255 255 255 255 255 255 255 
255 255 255 255 255 255 255 255 255 255 255 255 255 255 255 255 255 255 255 255 255 255 255 255 255 255 255 
255 255 255 255 255 255 255 255 255 255 255 255 255 255 255 255 255 255 255 255 255 255 255 255 255 255 255 
255 255 255 123 123 123 255 255 255 255 255 255 255 255 255 255 255 255 255 255 255 254 254 254 124 124 124 
255 255 255 139 139 139 236 236 236 255 255 255 255 255 255 255 255 255 255 255 255 190 190 190 186 186 186 
255 255 255 225 225 225 148 148 148 255 255 255 255 255 255 255 255 255 255 255 255 121 121 121 253 253 253 
255 255 255 255 255 255 115 115 115 255 255 255 255 255 255 255 255 255 242 242 242 131 131 131 255 255 255 
255 255 255 255 255 255 160 160 160 208 208 208 255 255 255 255 255 255 157 157 157 214 214 214 255 255 255 
255 255 255 255 255 255 243 243 243 122 122 122 255 255 255 255 255 255 114 114 114 255 255 255 255 255 255 
255 255 255 255 255 255 255 255 255 113 113 113 249 249 249 219 219 219 149 149 149 255 255 255 255 255 255 
255 255 255 255 255 255 255 255 255 187 187 187 173 173 173 129 129 129 236 236 236 255 255 255 255 255 255 
255 255 255 255 255 255 255 255 255 253 253 253 102 102 102 111 111 111 255 255 255 255 255 255 255 255 255 
255 255 255 255 255 255 255 255 255 255 255 255 120 120 120 176 176 176 255 255 255 255 255 255 255 255 255 
255 255 255 255 255 255 255 255 255 255 255 255 255 255 255 255 255 255 255 255 255 255 255 255 255 255 255 
255 255 255 255 255 255 255 255 255 255 255 255 255 255 255 255 255 255 255 255 255 255 255 255 255 255 255 
255 255 255 255 255 255 255 255 255 255 255 255 255 255 255 255 255 255 255 255 255 255 255 255 255 255 255 
255 255 255 255 255 255 255 255 255 255 255 255 255 255 255 255 255 255 255 255 255 255 255 255 255 255 255 
255 255 255 255 255 255 255 255 255 255 255 255 255 255 255 255 255 255 255 255 255 255 255 255 255 255 255 
