P3
13 21 
255 
255 255 255 255 255 255 255 255 255 255 255 255 255 255 255 255 255 255 255 255 255 255 255 255 255 255 255 255 255 255 255 255 255 255 255 255 255 255 255 
255 255 255 255 255 255 255 255 255 255 255 255 255 255 255 255 255 255 255 255 255 255 255 255 255 255 255 255 255 255 255 255 255 255 255 255 255 255 255 
255 255 255 255 255 255 255 255 255 255 255 255 255 255 255 255 255 255 255 255 255 255 255 255 255 255 255 255 255 255 255 255 255 255 255 255 255 255 255 
255 255 255 255 255 255 255 255 255 255 255 255 255 255 255 255 255 255 255 255 255 255 255 255 255 255 255 255 255 255 255 255 255 255 255 255 255 255 255 
255 255 255 255 255 255 255 255 255 255 255 255 255 255 255 255 255 255 255 255 255 255 255 255 255 255 255 255 255 255 255 255 255 255 255 255 255 255 255 
255 255 255 255 255 255 255 255 255 255 255 255 255 255 255 255 255 255 255 255 255 255 255 255 255 255 255 255 255 255 255 255 255 255 255 255 255 255 255 
253 253 253 119 119 119 255 255 255 255 255 255 255 255 255 255 255 255 147 147 147 170 170 170 255 255 255 255 255 255 255 255 255 255 255 255 116 116 116 
255 255 255 116 116 116 255 255 255 255 255 255 255 255 255 255 255 255 132 132 132 131 131 131 255 255 255 255 255 255 255 255 255 250 250 250 123 123 123 
255 255 255 155 155 155 217 217 217 255 255 255 255 255 255 239 239 239 143 143 143 122 122 122 252 252 252 255 255 255 255 255 255 192 192 192 181 181 181 
255 255 255 226 226 226 148 148 148 255 255 255 255 255 255 166 166 166 216 216 216 180 180 180 195 195 195 255 255 255 255 255 255 129 129 129 245 245 245 
255 255 255 255 255 255 117 117 117 255 255 255 255 255 255 128 128 128 255 255 255 248 248 248 130 130 130 255 255 255 255 255 255 120 120 120 255 255 255 
255 255 255 255 255 255 123 123 123 250 250 250 251 251 251 135 135 135 255 255 255 255 255 255 125 125 125 255 255 255 236 236 236 140 140 140 255 255 255 
255 255 255 255 255 255 180 180 180 193 193 193 191 191 191 196 196 196 255 255 255 255 255 255 164 164 164 220 220 220 168 168 168 208 208 208 255 255 255 
255 255 255 255 255 255 244 244 244 134 134 134 137 137 137 253 253 253 255 255 255 255 255 255 239 239 239 149 149 149 126 126 126 254 254 254 255 255 255 
255 255 255 255 255 255 255 255 255 132 132 132 136 136 136 255 255 255 255 255 255 255 255 255 255 255 255 135 135 135 133 133 133 255 255 255 255 255 255 
255 255 255 255 255 255 255 255 255 141 141 141 176 176 176 255 255 255 255 255 255 255 255 255 255 255 255 152 152 152 165 165 165 255 255 255 255 255 255 
255 255 255 255 255 255 255 255 255 255 255 255 255 255 255 255 255 255 255 255 255 255 255 255 255 255 255 255 255 255 255 255 255 255 255 255 255 255 255 
255 255 255 255 255 255 255 255 255 255 255 255 255 255 255 255 255 255 255 255 255 255 255 255 255 255 255 255 255 255 255 255 255 255 255 255 255 255 255 
255 255 255 255 255 255 255 255 255 255 255 255 255 255 255 255 255 255 255 255 255 255 255 255 255 255 255 255 255 255 255 255 255 255 255 255 255 255 255 
255 255 255 255 255 255 255 255 255 255 255 255 255 255 255 255 255 255 255 255 255 255 255 255 255 255 255 255 255 255 255 255 255 255 255 255 255 255 255 
255 255 255 255 255 255 255 255 255 255 255 255 255 255 255 255 255 255 255 255 255 255 255 255 255 255 255 255 255 255 255 255 255 255 255 255 255 255 255 
