P3
9 21 
255 
255 255 255 255 255 255 255 255 255 255 255 255 255 255 255 255 255 255 255 255 255 255 255 255 255 255 255 
255 255 255 255 255 255 255 255 255 255 255 255 255 255 255 255 255 255 255 255 255 255 255 255 255 255 255 
255 255 255 255 255 255 255 255 255 255 255 255 255 255 255 255 255 255 255 255 255 255 255 255 255 255 255 
255 255 255 255 255 255 255 255 255 255 255 255 255 255 255 255 255 255 255 255 255 255 255 255 255 255 255 
255 255 255 255 255 255 255 255 255 255 255 255 255 255 255 255 255 255 255 255 255 255 255 255 255 255 255 
255 255 255 255 255 255 255 255 255 255 255 255 255 255 255 255 255 255 255 255 255 255 255 255 255 255 255 
255 255 255 202 202 202 155 155 155 255 255 255 255 255 255 255 255 255 255 255 255 199 199 199 159 159 159 
255 255 255 255 255 255 137 137 137 216 216 216 255 255 255 255 255 255 244 244 244 110 110 110 255 255 255 
255 255 255 255 255 255 251 251 251 103 103 103 251 251 251 255 255 255 119 119 119 230 230 230 255 255 255 
255 255 255 255 255 255 255 255 255 213 213 213 132 132 132 178 178 178 168 168 168 255 255 255 255 255 255 
255 255 255 255 255 255 255 255 255 255 255 255 142 142 142 101 101 101 255 255 255 255 255 255 255 255 255 
255 255 255 255 255 255 255 255 255 255 255 255 122 122 122 106 106 106 250 250 250 255 255 255 255 255 255 
255 255 255 255 255 255 255 255 255 178 178 178 180 180 180 222 222 222 136 136 136 255 255 255 255 255 255 
255 255 255 255 255 255 235 235 235 124 124 124 255 255 255 255 255 255 159 159 159 199 199 199 255 255 255 
255 255 255 255 255 255 116 116 116 243 243 243 255 255 255 255 255 255 255 255 255 114 114 114 245 245 245 
255 255 255 165 165 165 193 193 193 255 255 255 255 255 255 255 255 255 255 255 255 231 231 231 128 128 128 
255 255 255 255 255 255 255 255 255 255 255 255 255 255 255 255 255 255 255 255 255 255 255 255 255 255 255 
255 255 255 255 255 255 255 255 255 255 255 255 255 255 255 255 255 255 255 255 255 255 255 255 255 255 255 
255 255 255 255 255 255 255 255 255 255 255 255 255 255 255 255 255 255 255 255 255 255 255 255 255 255 255 
255 255 255 255 255 255 255 255 255 255 255 255 255 255 255 255 255 255 255 255 255 255 255 255 255 255 255 
255 255 255 255 255 255 255 255 255 255 255 255 255 255 255 255 255 255 255 255 255 255 255 255 255 255 255 
