P3
9 21 
255 
255 255 255 255 255 255 255 255 255 255 255 255 255 255 255 255 255 255 255 255 255 255 255 255 255 255 255 
255 255 255 255 255 255 255 255 255 255 255 255 255 255 255 255 255 255 255 255 255 255 255 255 255 255 255 
255 255 255 255 255 255 255 255 255 255 255 255 255 255 255 255 255 255 255 255 255 255 255 255 255 255 255 
255 255 255 255 255 255 255 255 255 255 255 255 255 255 255 255 255 255 255 255 255 255 255 255 255 255 255 
255 255 255 255 255 255 255 255 255 255 255 255 255 255 255 255 255 255 255 255 255 255 255 255 255 255 255 
255 255 255 255 255 255 255 255 255 255 255 255 255 255 255 255 255 255 255 255 255 255 255 255 255 255 255 
239 239 239 139 139 139 255 255 255 255 255 255 255 255 255 255 255 255 255 255 255 242 242 242 133 133 133 
255 255 255 122 122 122 254 254 254 255 255 255 255 255 255 255 255 255 255 255 255 157 157 157 215 215 215 
255 255 255 187 187 187 186 186 186 255 255 255 255 255 255 255 255 255 255 255 255 115 115 115 255 255 255 
255 255 255 254 254 254 119 119 119 255 255 255 255 255 255 255 255 255 223 223 223 146 146 146 255 255 255 
255 255 255 255 255 255 134 134 134 236 236 236 255 255 255 255 255 255 133 133 133 233 233 233 255 255 255 
255 255 255 255 255 255 224 224 224 144 144 144 255 255 255 255 255 255 111 111 111 255 255 255 255 255 255 
255 255 255 255 255 255 255 255 255 111 111 111 255 255 255 196 196 196 168 168 168 255 255 255 255 255 255 
255 255 255 255 255 255 255 255 255 165 165 165 198 198 198 115 115 115 246 246 246 255 255 255 255 255 255 
255 255 255 255 255 255 255 255 255 247 247 247 107 107 107 114 114 114 255 255 255 255 255 255 255 255 255 
255 255 255 255 255 255 255 255 255 255 255 255 105 105 105 191 191 191 255 255 255 255 255 255 255 255 255 
255 255 255 255 255 255 255 255 255 255 255 255 125 125 125 254 254 254 255 255 255 255 255 255 255 255 255 
255 255 255 255 255 255 255 255 255 244 244 244 135 135 135 255 255 255 255 255 255 255 255 255 255 255 255 
255 255 255 255 255 255 255 255 255 140 140 140 224 224 224 255 255 255 255 255 255 255 255 255 255 255 255 
255 255 255 163 163 163 120 120 120 168 168 168 255 255 255 255 255 255 255 255 255 255 255 255 255 255 255 
255 255 255 255 255 255 255 255 255 255 255 255 255 255 255 255 255 255 255 255 255 255 255 255 255 255 255 
