P3
6 18 
255 
255 255 255 255 255 255 255 255 255 255 255 255 167 167 167 177 177 177 
255 255 255 255 255 255 255 255 255 248 248 248 127 127 127 255 255 255 
255 255 255 255 255 255 255 255 255 206 206 206 182 182 182 255 255 255 
255 255 255 255 255 255 255 255 255 182 182 182 208 208 208 255 255 255 
255 255 255 255 255 255 255 255 255 179 179 179 211 211 211 255 255 255 
255 255 255 255 255 255 255 255 255 177 177 177 214 214 214 255 255 255 
255 255 255 255 255 255 255 255 255 151 151 151 239 239 239 255 255 255 
255 255 255 255 255 255 234 234 234 132 132 132 255 255 255 255 255 255 
255 255 255 167 167 167 71 71 71 239 239 239 255 255 255 255 255 255 
255 255 255 255 255 255 235 235 235 128 128 128 255 255 255 255 255 255 
255 255 255 255 255 255 255 255 255 151 151 151 238 238 238 255 255 255 
255 255 255 255 255 255 255 255 255 177 177 177 214 214 214 255 255 255 
255 255 255 255 255 255 255 255 255 179 179 179 211 211 211 255 255 255 
255 255 255 255 255 255 255 255 255 183 183 183 208 208 208 255 255 255 
255 255 255 255 255 255 255 255 255 207 207 207 180 180 180 255 255 255 
255 255 255 255 255 255 255 255 255 249 249 249 121 121 121 255 255 255 
255 255 255 255 255 255 255 255 255 255 255 255 168 168 168 158 158 158 
255 255 255 255 255 255 255 255 255 255 255 255 255 255 255 197 197 197 
