P3
6 18 
255 
255 255 255 192 192 192 152 152 152 255 255 255 255 255 255 255 255 255 
255 255 255 255 255 255 137 137 137 239 239 239 255 255 255 255 255 255 
255 255 255 255 255 255 202 202 202 187 187 187 255 255 255 255 255 255 
255 255 255 255 255 255 228 228 228 162 162 162 255 255 255 255 255 255 
255 255 255 255 255 255 231 231 231 159 159 159 255 255 255 255 255 255 
255 255 255 255 255 255 234 234 234 157 157 157 255 255 255 255 255 255 
255 255 255 255 255 255 252 252 252 137 137 137 255 255 255 255 255 255 
255 255 255 255 255 255 255 255 255 137 137 137 226 226 226 255 255 255 
255 255 255 255 255 255 255 255 255 246 246 246 76 76 76 151 151 151 
255 255 255 255 255 255 255 255 255 133 133 133 228 228 228 255 255 255 
255 255 255 255 255 255 252 252 252 136 136 136 255 255 255 255 255 255 
255 255 255 255 255 255 233 233 233 157 157 157 255 255 255 255 255 255 
255 255 255 255 255 255 231 231 231 159 159 159 255 255 255 255 255 255 
255 255 255 255 255 255 228 228 228 163 163 163 255 255 255 255 255 255 
255 255 255 255 255 255 201 201 201 188 188 188 255 255 255 255 255 255 
255 255 255 255 255 255 130 130 130 241 241 241 255 255 255 255 255 255 
255 255 255 171 171 171 155 155 155 255 255 255 255 255 255 255 255 255 
188 188 188 188 188 188 255 255 255 255 255 255 255 255 255 255 255 255 
